<?xml version="1.0" encoding="utf-8"?>
<!-- Generator: Adobe Illustrator 24.3.0, SVG Export Plug-In . SVG Version: 6.00 Build 0)  -->
<svg version="1.1" id="Layer_1" xmlns="http://www.w3.org/2000/svg" xmlns:xlink="http://www.w3.org/1999/xlink" x="0px" y="0px"
	 viewBox="0 0 48.28 48.83" style="enable-background:new 0 0 48.28 48.83;" xml:space="preserve">
<style type="text/css">
	.st0{enable-background:new    ;}
	.st1{clip-path:url(#SVGID_2_);}
	.st2{clip-path:url(#SVGID_4_);fill:#FFFFFF;}
	.st3{clip-path:url(#SVGID_6_);}
	.st4{clip-path:url(#SVGID_8_);fill:#FFFFFF;}
</style>
<g>
	<g class="st0">
		<g>
			<g>
				<defs>
					<path id="SVGID_1_" d="M24.68,43.62c-0.11,0-0.22-0.01-0.31-0.03v0.06l-0.4-0.19C18.33,40.71,11.18,34.83,9,29.33
						c-0.05-0.14-0.11-0.28-0.15-0.41c-0.05-0.15-0.09-0.28-0.14-0.41c-0.05-0.15-0.09-0.28-0.12-0.42
						c-0.04-0.16-0.07-0.29-0.1-0.42c-0.03-0.16-0.06-0.29-0.08-0.42c-0.03-0.16-0.05-0.29-0.06-0.41
						c-0.02-0.17-0.03-0.29-0.04-0.42C8.3,26.25,8.29,26.13,8.29,26c0-0.16,0-0.29,0-0.42c0.01-0.16,0.02-0.29,0.03-0.42
						c0.01-0.16,0.03-0.29,0.05-0.42c0.02-0.15,0.05-0.28,0.07-0.41c0.03-0.15,0.06-0.28,0.1-0.41c0.31-1.12,0.9-2.18,1.75-3.14
						c1.46-1.65,3.44-2.53,5.74-2.53l0.69,0.02c3.12,0.23,6.15,2.02,7.56,4.46c0.05,0.07,0.21,0.25,0.39,0.26
						c0.16-0.01,0.33-0.21,0.37-0.26l0.01-0.01c1.41-2.44,4.43-4.22,7.55-4.45l0.69-0.02c2.3,0.01,4.29,0.89,5.75,2.53
						c0.85,0.96,1.44,2.01,1.75,3.13l0,0.01c0.03,0.13,0.07,0.26,0.1,0.39c0.03,0.15,0.05,0.28,0.07,0.41
						c0.03,0.15,0.04,0.28,0.05,0.41c0.01,0.16,0.02,0.29,0.03,0.41c0.01,0.16,0.01,0.29,0.01,0.41V26c0,0.13-0.01,0.25-0.02,0.38
						c-0.01,0.17-0.02,0.29-0.04,0.42c-0.02,0.16-0.04,0.29-0.06,0.42c-0.03,0.17-0.05,0.3-0.08,0.42c-0.03,0.16-0.06,0.29-0.1,0.42
						c-0.04,0.16-0.08,0.29-0.12,0.42c-0.05,0.15-0.09,0.29-0.14,0.42c-0.05,0.15-0.1,0.28-0.16,0.42
						c-2.18,5.51-9.33,11.39-14.97,14.13l-0.4,0.19v-0.06C24.88,43.61,24.78,43.62,24.68,43.62z M14.9,13.73
						c3.27-3.27,6.22-5.82,9.02-7.8c0.02-0.02,0.05-0.04,0.08-0.06l0.19-0.2l0.06,0.08c0.13-0.04,0.27-0.06,0.41-0.06
						c0.22,0,0.43,0.05,0.59,0.13h0.01l0.07,0.04c0.04,0.03,0.07,0.05,0.1,0.07c2.78,1.97,5.74,4.52,9.01,7.79l0.5,0.51l-0.72-0.04
						c-0.23-0.01-0.45-0.02-0.67-0.02c-3.36-0.03-6.06,1.07-8.33,3.39c-0.09,0.12-0.31,0.21-0.56,0.21c-0.25,0-0.47-0.09-0.58-0.24
						c-2.21-2.26-4.89-3.37-8.15-3.37c-0.05,0-0.11,0-0.16,0c-0.22,0-0.45,0.01-0.68,0.02l-0.71,0.04L14.9,13.73z M45.48,25.97
						c0.01-0.12,0.01-0.24,0.01-0.36l0.01-0.2c-0.01-6.06-6.34-12.72-7.61-13.99C36.3,9.82,29.07,2.97,25.28,1.06
						c-0.13-0.07-0.33-0.12-0.61-0.13c-0.29,0-0.49,0.06-0.58,0.11c-3.81,1.93-11.05,8.78-12.64,10.37
						c-1.27,1.27-7.61,7.93-7.61,13.95c0,0,0.01,0.46,0.02,0.61c0.57,7.67,7.19,14.95,20.25,22.26c0.11,0.06,0.3,0.12,0.55,0.12
						c0.26,0,0.45-0.06,0.54-0.11C38.29,40.92,44.91,33.64,45.48,25.97z"/>
				</defs>
				<clipPath id="SVGID_2_">
					<use xlink:href="#SVGID_1_"  style="overflow:visible;"/>
				</clipPath>
				<g class="st1">
					<defs>
						<rect id="SVGID_3_" x="3.74" y="0.36" width="42" height="48"/>
					</defs>
					<clipPath id="SVGID_4_">
						<use xlink:href="#SVGID_3_"  style="overflow:visible;"/>
					</clipPath>
					<rect x="-1.16" y="-4.07" class="st2" width="51.66" height="57.43"/>
				</g>
			</g>
		</g>
	</g>
</g>
<g>
	<defs>
		<path id="SVGID_5_" d="M25.75,26.84c-0.07-0.05-0.13-0.1-0.21-0.14c-0.35-0.21-0.76-0.34-1.18-0.34h0h-0.02h0
			c-0.43,0-0.83,0.13-1.19,0.34c-0.07,0.04-0.14,0.09-0.2,0.14c-0.13,0.1-0.26,0.21-0.37,0.33c-0.45,0.47-0.73,1.08-0.73,1.63
			c0,0.07,0,0.14,0,0.2c0.03,0.51,0.16,0.89,0.38,1.18c0.06,0.08,0.11,0.15,0.18,0.21c0.09,0.1,0.2,0.19,0.32,0.28l0.08,0.06
			c0.09,0.06,0.11,0.45,0.04,0.86l-0.03,0.16c-0.07,0.41-0.18,1.08-0.25,1.49l-0.58,3.38c-0.07,0.41,0.18,0.74,0.57,0.74h0.4h0.76
			h1.28h0.53h0.64c0.38,0,0.64-0.34,0.57-0.74l-0.58-3.38c-0.07-0.41-0.19-1.08-0.25-1.49l-0.03-0.16
			c-0.07-0.41-0.05-0.79,0.04-0.86l0.08-0.06c0.12-0.09,0.22-0.18,0.32-0.28c0.07-0.07,0.12-0.14,0.18-0.21
			c0.22-0.3,0.35-0.67,0.38-1.18c0-0.06,0-0.13,0-0.2c0-0.55-0.28-1.16-0.73-1.63C26,27.04,25.88,26.94,25.75,26.84"/>
	</defs>
	<clipPath id="SVGID_6_">
		<use xlink:href="#SVGID_5_"  style="overflow:visible;"/>
	</clipPath>
	<g class="st3">
		<defs>
			<rect id="SVGID_7_" x="-487.26" y="-2151.64" width="1024" height="2663"/>
		</defs>
		<clipPath id="SVGID_8_">
			<use xlink:href="#SVGID_7_"  style="overflow:visible;"/>
		</clipPath>
		<rect x="16.84" y="21.36" class="st4" width="15" height="21"/>
	</g>
</g>
</svg>
