<?xml version="1.0" encoding="utf-8"?>
<!-- Generator: Adobe Illustrator 24.3.0, SVG Export Plug-In . SVG Version: 6.00 Build 0)  -->
<svg version="1.1" id="Layer_1" xmlns="http://www.w3.org/2000/svg" xmlns:xlink="http://www.w3.org/1999/xlink" x="0px" y="0px"
	 viewBox="0 0 129.83 40.86" style="enable-background:new 0 0 129.83 40.86;" xml:space="preserve">
<style type="text/css">
	.st0{clip-path:url(#SVGID_2_);}
	.st1{clip-path:url(#SVGID_4_);fill:#FFFFFF;}
	.st2{clip-path:url(#SVGID_6_);enable-background:new    ;}
	.st3{clip-path:url(#SVGID_8_);}
	.st4{clip-path:url(#SVGID_10_);}
	.st5{clip-path:url(#SVGID_12_);fill:#CD1D5B;}
	.st6{clip-path:url(#SVGID_14_);}
	.st7{clip-path:url(#SVGID_16_);fill:#010101;}
	.st8{clip-path:url(#SVGID_18_);enable-background:new    ;}
	.st9{clip-path:url(#SVGID_20_);}
	.st10{clip-path:url(#SVGID_22_);}
	.st11{clip-path:url(#SVGID_24_);fill:#FFFFFF;}
	.st12{clip-path:url(#SVGID_26_);enable-background:new    ;}
	.st13{clip-path:url(#SVGID_28_);}
	.st14{clip-path:url(#SVGID_30_);}
	.st15{clip-path:url(#SVGID_32_);fill:#FFFFFF;}
	.st16{clip-path:url(#SVGID_34_);}
	.st17{clip-path:url(#SVGID_36_);fill:#FFFFFF;}
</style>
<g>
	<g>
		<defs>
			<path id="SVGID_1_" d="M127.1,34.89c0,1.97-1.6,3.56-3.58,3.56h0H6.29c-1.98,0-3.58-1.59-3.59-3.56V6.48
				c0-1.97,1.61-3.57,3.59-3.57h117.22c1.98,0,3.58,1.6,3.58,3.57v0L127.1,34.89z"/>
		</defs>
		<clipPath id="SVGID_2_">
			<use xlink:href="#SVGID_1_"  style="overflow:visible;"/>
		</clipPath>
		<g class="st0">
			<defs>
				<rect id="SVGID_3_" x="-161.16" y="-584.82" width="1024" height="2663"/>
			</defs>
			<clipPath id="SVGID_4_">
				<use xlink:href="#SVGID_3_"  style="overflow:visible;"/>
			</clipPath>
			<rect x="-2.29" y="-2.09" class="st1" width="134.39" height="45.53"/>
		</g>
	</g>
	<g>
		<defs>
			<rect id="SVGID_5_" x="1.84" y="1.9" width="126.41" height="37.42"/>
		</defs>
		<clipPath id="SVGID_6_">
			<use xlink:href="#SVGID_5_"  style="overflow:visible;"/>
		</clipPath>
		<g class="st2">
			<g>
				<defs>
					<rect id="SVGID_7_" x="0.84" y="1.18" width="128" height="39"/>
				</defs>
				<clipPath id="SVGID_8_">
					<use xlink:href="#SVGID_7_"  style="overflow:visible;"/>
				</clipPath>
				<g class="st3">
					<defs>
						<path id="SVGID_9_" d="M123.82,39.31H6.27c-2.44,0-4.43-1.98-4.43-4.42V6.32c0-2.44,1.99-4.42,4.43-4.42h117.55
							c2.44,0,4.43,1.98,4.43,4.42V34.9C128.25,37.33,126.26,39.31,123.82,39.31"/>
					</defs>
					<clipPath id="SVGID_10_">
						<use xlink:href="#SVGID_9_"  style="overflow:visible;"/>
					</clipPath>
					<g class="st4">
						<defs>
							<rect id="SVGID_11_" x="1.84" y="1.18" width="127" height="39"/>
						</defs>
						<clipPath id="SVGID_12_">
							<use xlink:href="#SVGID_11_"  style="overflow:visible;"/>
						</clipPath>
						<rect x="-3.16" y="-3.1" class="st5" width="136.41" height="47.42"/>
					</g>
				</g>
			</g>
		</g>
	</g>
	<g>
		<defs>
			<path id="SVGID_13_" d="M127.1,34.89c0,1.97-1.6,3.56-3.58,3.56h0H6.29c-1.98,0-3.58-1.59-3.59-3.56V6.48
				c0-1.97,1.61-3.57,3.59-3.57h117.22c1.98,0,3.58,1.6,3.58,3.57v0L127.1,34.89z"/>
		</defs>
		<clipPath id="SVGID_14_">
			<use xlink:href="#SVGID_13_"  style="overflow:visible;"/>
		</clipPath>
		<g class="st6">
			<defs>
				<rect id="SVGID_15_" x="-161.16" y="-584.82" width="1024" height="2663"/>
			</defs>
			<clipPath id="SVGID_16_">
				<use xlink:href="#SVGID_15_"  style="overflow:visible;"/>
			</clipPath>
			<rect x="-2.29" y="-2.09" class="st7" width="134.39" height="45.53"/>
		</g>
	</g>
	<g>
		<defs>
			<rect id="SVGID_17_" x="12.84" y="8.08" width="19.09" height="24.26"/>
		</defs>
		<clipPath id="SVGID_18_">
			<use xlink:href="#SVGID_17_"  style="overflow:visible;"/>
		</clipPath>
		<g class="st8">
			<g>
				<defs>
					<rect id="SVGID_19_" x="10.84" y="7.18" width="22" height="26"/>
				</defs>
				<clipPath id="SVGID_20_">
					<use xlink:href="#SVGID_19_"  style="overflow:visible;"/>
				</clipPath>
				<g class="st9">
					<defs>
						<path id="SVGID_21_" d="M28.78,20.98c-0.03-3.06,2.43-4.56,2.54-4.63c-1.39-2.1-3.54-2.38-4.3-2.4
							c-1.81-0.2-3.56,1.12-4.49,1.12c-0.94,0-2.36-1.1-3.89-1.07c-1.97,0.03-3.81,1.21-4.82,3.04c-2.08,3.73-0.53,9.21,1.47,12.23
							c1,1.48,2.17,3.13,3.69,3.07c1.49-0.06,2.05-0.98,3.86-0.98c1.79,0,2.31,0.98,3.87,0.95c1.6-0.03,2.61-1.48,3.58-2.97
							c1.15-1.69,1.62-3.36,1.64-3.45C31.89,25.87,28.81,24.65,28.78,20.98 M25.84,11.96c0.8-1.04,1.35-2.45,1.2-3.89
							c-1.16,0.05-2.62,0.83-3.46,1.85c-0.74,0.9-1.4,2.36-1.23,3.74C23.66,13.77,25,12.99,25.84,11.96"/>
					</defs>
					<clipPath id="SVGID_22_">
						<use xlink:href="#SVGID_21_"  style="overflow:visible;"/>
					</clipPath>
					<g class="st10">
						<defs>
							<rect id="SVGID_23_" x="12.84" y="7.18" width="20" height="26"/>
						</defs>
						<clipPath id="SVGID_24_">
							<use xlink:href="#SVGID_23_"  style="overflow:visible;"/>
						</clipPath>
						<rect x="7.84" y="3.07" class="st11" width="29.09" height="34.26"/>
					</g>
				</g>
			</g>
		</g>
	</g>
	<g>
		<defs>
			<rect id="SVGID_25_" x="39.7" y="17.85" width="73.78" height="16.33"/>
		</defs>
		<clipPath id="SVGID_26_">
			<use xlink:href="#SVGID_25_"  style="overflow:visible;"/>
		</clipPath>
		<g class="st12">
			<g>
				<defs>
					<rect id="SVGID_27_" x="38.84" y="17.18" width="75" height="18"/>
				</defs>
				<clipPath id="SVGID_28_">
					<use xlink:href="#SVGID_27_"  style="overflow:visible;"/>
				</clipPath>
				<g class="st13">
					<defs>
						<path id="SVGID_29_" d="M50.09,30.53h-2.1l-1.15-3.67h-4l-1.1,3.67H39.7l3.97-12.49h2.45L50.09,30.53z M46.49,25.32
							l-1.04-3.26c-0.11-0.33-0.32-1.12-0.62-2.35h-0.04c-0.12,0.53-0.32,1.32-0.58,2.35l-1.02,3.26H46.49z M60.27,25.91
							c0,1.53-0.41,2.74-1.23,3.63c-0.73,0.79-1.65,1.19-2.74,1.19c-1.18,0-2.02-0.43-2.54-1.28v4.73h-1.97v-9.7
							c0-0.96-0.03-1.95-0.07-2.96h1.74l0.11,1.43h0.04c0.66-1.08,1.66-1.61,3-1.61c1.05,0,1.92,0.42,2.62,1.26
							C59.92,23.44,60.27,24.54,60.27,25.91z M58.26,25.99c0-0.88-0.19-1.6-0.59-2.17c-0.43-0.59-1-0.89-1.72-0.89
							c-0.49,0-0.93,0.16-1.32,0.49c-0.4,0.33-0.66,0.76-0.78,1.29c-0.05,0.2-0.09,0.4-0.09,0.61v1.5c0,0.65,0.2,1.21,0.59,1.66
							c0.4,0.45,0.91,0.68,1.54,0.68c0.74,0,1.32-0.29,1.73-0.87C58.05,27.7,58.26,26.94,58.26,25.99z M70.48,25.91
							c0,1.53-0.41,2.74-1.23,3.63c-0.74,0.79-1.65,1.19-2.74,1.19c-1.18,0-2.02-0.43-2.54-1.28v4.73h-1.97v-9.7
							c0-0.96-0.02-1.95-0.07-2.96h1.73l0.11,1.43h0.04c0.66-1.08,1.66-1.61,3-1.61c1.05,0,1.92,0.42,2.62,1.26
							C70.13,23.44,70.48,24.54,70.48,25.91z M68.47,25.99c0-0.88-0.2-1.6-0.59-2.17c-0.43-0.59-1-0.89-1.72-0.89
							c-0.49,0-0.93,0.16-1.33,0.49c-0.4,0.33-0.65,0.76-0.78,1.29c-0.06,0.25-0.09,0.45-0.09,0.61v1.5c0,0.65,0.2,1.21,0.59,1.66
							c0.4,0.45,0.91,0.68,1.55,0.68c0.74,0,1.32-0.29,1.74-0.87C68.27,27.7,68.47,26.94,68.47,25.99z M81.9,27.02
							c0,1.06-0.37,1.93-1.09,2.6c-0.8,0.73-1.92,1.09-3.35,1.09c-1.33,0-2.39-0.26-3.19-0.78l0.46-1.67
							c0.87,0.52,1.82,0.78,2.85,0.78c0.74,0,1.32-0.17,1.74-0.51c0.41-0.34,0.62-0.79,0.62-1.36c0-0.51-0.17-0.93-0.51-1.28
							c-0.34-0.35-0.91-0.67-1.7-0.96c-2.16-0.82-3.24-2.01-3.24-3.58c0-1.03,0.38-1.86,1.14-2.52c0.76-0.66,1.77-0.98,3.02-0.98
							c1.12,0,2.05,0.2,2.8,0.59l-0.5,1.63c-0.7-0.38-1.48-0.57-2.37-0.57c-0.7,0-1.24,0.17-1.63,0.52
							c-0.33,0.31-0.49,0.69-0.49,1.13c0,0.49,0.19,0.9,0.57,1.22c0.33,0.3,0.93,0.62,1.79,0.96c1.06,0.43,1.84,0.94,2.34,1.52
							C81.65,25.44,81.9,26.16,81.9,27.02z M88.44,23.02h-2.17v4.37c0,1.11,0.38,1.67,1.15,1.67c0.35,0,0.65-0.03,0.88-0.09
							l0.05,1.52c-0.39,0.15-0.9,0.22-1.53,0.22c-0.78,0-1.39-0.24-1.83-0.72c-0.44-0.48-0.66-1.29-0.66-2.43v-4.54h-1.3v-1.5h1.3
							v-1.65l1.94-0.59v2.24h2.17V23.02z M98.24,25.95c0,1.38-0.39,2.52-1.17,3.41c-0.81,0.92-1.9,1.37-3.25,1.37
							c-1.3,0-2.34-0.44-3.12-1.31c-0.77-0.88-1.16-1.98-1.16-3.32c0-1.4,0.4-2.54,1.2-3.43c0.8-0.89,1.87-1.34,3.23-1.34
							c1.3,0,2.35,0.44,3.14,1.32C97.86,23.5,98.24,24.6,98.24,25.95z M96.19,26c0-0.83-0.18-1.53-0.53-2.12
							c-0.41-0.72-1.01-1.07-1.77-1.07c-0.79,0-1.4,0.36-1.81,1.07c-0.35,0.59-0.53,1.31-0.53,2.16c0,0.83,0.18,1.54,0.53,2.13
							c0.43,0.72,1.02,1.07,1.79,1.07c0.75,0,1.34-0.36,1.77-1.09C96.01,27.54,96.19,26.82,96.19,26z M104.65,23.28
							c-0.21-0.04-0.41-0.06-0.62-0.06c-0.69,0-1.23,0.27-1.61,0.8c-0.33,0.47-0.49,1.06-0.49,1.78v4.73h-1.97v-6.17
							c0-0.95-0.02-1.89-0.06-2.84h1.72l0.07,1.72h0.05c0.21-0.59,0.54-1.07,0.99-1.43c0.41-0.31,0.91-0.48,1.43-0.48
							c0.18,0,0.35,0.01,0.49,0.04L104.65,23.28z M113.48,25.6c0,0.3-0.02,0.61-0.07,0.91h-5.92c0.02,0.89,0.31,1.57,0.86,2.04
							c0.5,0.42,1.14,0.63,1.94,0.63c0.88,0,1.68-0.14,2.39-0.42l0.31,1.39c-0.84,0.37-1.83,0.56-2.98,0.56
							c-1.38,0-2.46-0.41-3.24-1.23c-0.78-0.82-1.18-1.92-1.18-3.31c0-1.36,0.37-2.49,1.1-3.39c0.77-0.96,1.8-1.44,3.1-1.44
							c1.28,0,2.25,0.48,2.91,1.44C113.21,23.53,113.48,24.47,113.48,25.6z M111.59,25.08c0.01-0.59-0.12-1.11-0.38-1.54
							c-0.34-0.56-0.87-0.83-1.57-0.83c-0.65,0-1.17,0.27-1.57,0.82c-0.33,0.43-0.52,0.95-0.58,1.56L111.59,25.08z"/>
					</defs>
					<clipPath id="SVGID_30_">
						<use xlink:href="#SVGID_29_"  style="overflow:visible;"/>
					</clipPath>
					<g class="st14">
						<defs>
							<rect id="SVGID_31_" x="38.84" y="17.18" width="75" height="17"/>
						</defs>
						<clipPath id="SVGID_32_">
							<use xlink:href="#SVGID_31_"  style="overflow:visible;"/>
						</clipPath>
						<rect x="34.7" y="12.85" class="st15" width="83.78" height="26.33"/>
					</g>
				</g>
			</g>
		</g>
	</g>
	<g>
		<defs>
			<path id="SVGID_33_" d="M42.98,14.97c-0.55,0-1.02-0.03-1.41-0.08V8.48c0.55-0.09,1.11-0.14,1.66-0.14c2.25,0,3.29,1.2,3.29,3.16
				C46.52,13.75,45.3,14.97,42.98,14.97z M43.31,9.16c-0.3,0-0.56,0.02-0.78,0.07v4.88c0.12,0.02,0.34,0.03,0.65,0.03
				c1.48,0,2.32-0.91,2.32-2.61C45.5,10.01,44.74,9.16,43.31,9.16z M49.75,15.02c-1.27,0-2.09-1.03-2.09-2.42
				c0-1.45,0.84-2.49,2.16-2.49c1.25,0,2.09,0.98,2.09,2.41C51.92,13.99,51.05,15.02,49.75,15.02z M49.79,10.88
				c-0.7,0-1.14,0.71-1.14,1.69c0,0.97,0.46,1.68,1.13,1.68c0.68,0,1.13-0.76,1.13-1.69C50.92,11.59,50.47,10.88,49.79,10.88z
				 M59.15,10.21l-1.36,4.7h-0.88l-0.56-2.04c-0.14-0.5-0.26-1.01-0.35-1.52h-0.02c-0.07,0.51-0.21,1.03-0.35,1.52l-0.6,2.04h-0.89
				l-1.28-4.7h0.99l0.49,2.24c0.12,0.53,0.21,1.03,0.3,1.51h0.02c0.07-0.4,0.19-0.89,0.36-1.5l0.62-2.24h0.79l0.59,2.2
				c0.14,0.53,0.26,1.05,0.35,1.55h0.03c0.06-0.48,0.16-1,0.3-1.55l0.53-2.2L59.15,10.21z M64.15,14.91h-0.96v-2.7
				c0-0.83-0.29-1.25-0.88-1.25c-0.57,0-0.96,0.53-0.96,1.15v2.8h-0.96v-3.36c0-0.42-0.01-0.86-0.04-1.34h0.85l0.05,0.73h0.03
				c0.26-0.5,0.79-0.82,1.38-0.82c0.91,0,1.51,0.75,1.51,1.98L64.15,14.91z M65.85,14.91h0.97V8.05h-0.97V14.91z M70.33,15.02
				c-1.27,0-2.09-1.03-2.09-2.42c0-1.45,0.84-2.49,2.16-2.49c1.25,0,2.09,0.98,2.09,2.41C72.5,13.99,71.63,15.02,70.33,15.02z
				 M70.37,10.88c-0.7,0-1.14,0.71-1.14,1.69c0,0.97,0.46,1.68,1.13,1.68c0.68,0,1.13-0.76,1.13-1.69
				C71.49,11.59,71.05,10.88,70.37,10.88z M76.3,14.91l-0.07-0.54H76.2c-0.29,0.44-0.72,0.65-1.27,0.65c-0.78,0-1.33-0.59-1.33-1.38
				c0-1.16,0.93-1.76,2.54-1.76v-0.09c0-0.62-0.3-0.93-0.9-0.93c-0.43,0-0.8,0.12-1.13,0.35l-0.2-0.69c0.4-0.27,0.9-0.41,1.49-0.41
				c1.13,0,1.71,0.65,1.71,1.95v1.73c0,0.48,0.02,0.84,0.06,1.12L76.3,14.91z M76.17,12.57c-1.07,0-1.61,0.28-1.61,0.95
				c0,0.49,0.28,0.74,0.66,0.74c0.49,0,0.95-0.41,0.95-0.96V12.57z M81.79,14.91l-0.04-0.76h-0.03c-0.28,0.57-0.74,0.86-1.39,0.86
				c-1.05,0-1.82-1-1.82-2.4c0-1.47,0.8-2.51,1.9-2.51c0.58,0,0.99,0.21,1.22,0.64h0.02v-2.7h0.97v5.59c0,0.45,0.01,0.88,0.04,1.27
				H81.79z M81.65,12.15c0-0.66-0.4-1.22-1.02-1.22c-0.72,0-1.15,0.69-1.15,1.66c0,0.95,0.45,1.6,1.13,1.6
				c0.61,0,1.04-0.57,1.04-1.25V12.15z M88.74,15.02c-1.27,0-2.09-1.03-2.09-2.42c0-1.45,0.84-2.49,2.16-2.49
				c1.25,0,2.09,0.98,2.09,2.41C90.91,13.99,90.04,15.02,88.74,15.02z M88.78,10.88c-0.7,0-1.14,0.71-1.14,1.69
				c0,0.97,0.46,1.68,1.13,1.68c0.68,0,1.13-0.76,1.13-1.69C89.91,11.59,89.46,10.88,88.78,10.88z M96.1,14.91h-0.97v-2.7
				c0-0.83-0.29-1.25-0.87-1.25c-0.57,0-0.96,0.53-0.96,1.15v2.8h-0.97v-3.36c0-0.42-0.01-0.86-0.04-1.34h0.85l0.05,0.73h0.03
				c0.26-0.5,0.79-0.82,1.38-0.82c0.91,0,1.51,0.76,1.51,1.98V14.91z M102.59,10.99h-1.06v2.28c0,0.58,0.19,0.87,0.56,0.87
				c0.17,0,0.31-0.02,0.43-0.05l0.03,0.79c-0.19,0.08-0.44,0.12-0.75,0.12c-0.76,0-1.22-0.46-1.22-1.65v-2.37h-0.63v-0.78h0.63V9.35
				l0.95-0.31v1.17h1.06V10.99z M107.7,14.91h-0.96v-2.68c0-0.84-0.29-1.27-0.88-1.27c-0.5,0-0.97,0.37-0.97,1.11v2.84h-0.96V8.05
				h0.96v2.82h0.02c0.3-0.51,0.74-0.76,1.31-0.76c0.92,0,1.48,0.77,1.48,2V14.91z M112.93,12.81h-2.9c0.02,0.89,0.56,1.39,1.37,1.39
				c0.43,0,0.82-0.08,1.17-0.22l0.15,0.73c-0.41,0.19-0.89,0.29-1.46,0.29c-1.36,0-2.16-0.93-2.16-2.37c0-1.44,0.82-2.53,2.05-2.53
				c1.11,0,1.81,0.89,1.81,2.24C112.97,12.5,112.96,12.66,112.93,12.81z M112.05,12.07c0-0.73-0.34-1.24-0.96-1.24
				c-0.55,0-0.99,0.52-1.06,1.24H112.05z"/>
		</defs>
		<clipPath id="SVGID_34_">
			<use xlink:href="#SVGID_33_"  style="overflow:visible;"/>
		</clipPath>
		<g class="st16">
			<defs>
				<rect id="SVGID_35_" x="-161.16" y="-584.82" width="1024" height="2663"/>
			</defs>
			<clipPath id="SVGID_36_">
				<use xlink:href="#SVGID_35_"  style="overflow:visible;"/>
			</clipPath>
			<rect x="36.57" y="3.05" class="st17" width="81.4" height="16.97"/>
		</g>
	</g>
</g>
</svg>
