<?xml version="1.0" encoding="utf-8"?>
<!-- Generator: Adobe Illustrator 24.3.0, SVG Export Plug-In . SVG Version: 6.00 Build 0)  -->
<svg version="1.1" id="Layer_1" xmlns="http://www.w3.org/2000/svg" xmlns:xlink="http://www.w3.org/1999/xlink" x="0px" y="0px"
	 viewBox="0 0 25.37 24.81" style="enable-background:new 0 0 25.37 24.81;" xml:space="preserve">
<style type="text/css">
	.st0{fill:#CE0058;}
</style>
<g>
	<path class="st0" d="M12.54,23.71c-1.88,0-3.77,0.06-5.65-0.01c-2.96-0.11-5.54-2.57-5.63-5.52c-0.11-3.83-0.1-7.67,0-11.5
		c0.08-2.92,2.58-5.45,5.49-5.54c3.9-0.11,7.81-0.11,11.72,0c2.82,0.08,5.34,2.53,5.44,5.35c0.14,3.94,0.14,7.88,0,11.82
		c-0.1,2.89-2.64,5.26-5.52,5.39C16.45,23.77,14.49,23.7,12.54,23.71C12.54,23.7,12.54,23.71,12.54,23.71z M12.49,22.01
		c0,0.04,0,0.09,0,0.13c1.06,0,2.13,0.02,3.19-0.01c0.82-0.02,1.63-0.08,2.45-0.13c2.2-0.13,4.04-1.67,4.11-3.86
		c0.14-3.83,0.14-7.66,0.01-11.49c-0.07-2.18-1.92-3.82-4.11-3.86c-3.69-0.06-7.38-0.06-11.07,0C4.84,2.85,3.02,4.53,2.96,6.76
		c-0.11,3.76-0.12,7.52,0,11.28c0.07,2.26,1.86,3.88,4.11,3.96C8.87,22.07,10.68,22.01,12.49,22.01z"/>
	<path class="st0" d="M18.54,12.44c-0.02,3.23-2.69,5.9-5.93,5.9c-3.28,0-5.99-2.71-5.97-5.98c0.02-3.22,2.71-5.9,5.93-5.91
		C15.85,6.44,18.56,9.17,18.54,12.44z M16.84,12.36c-0.02-2.34-1.98-4.25-4.31-4.2c-2.3,0.05-4.17,1.94-4.18,4.24
		c-0.01,2.34,1.92,4.26,4.27,4.25C14.98,16.63,16.86,14.72,16.84,12.36z"/>
	<path class="st0" d="M18.9,7.48c-0.74-0.03-1.31-0.67-1.24-1.42c0.08-0.79,0.56-1.21,1.34-1.19c0.79,0.02,1.21,0.52,1.26,1.29
		C20.3,6.88,19.62,7.51,18.9,7.48z"/>
</g>
</svg>
