<?xml version="1.0" encoding="utf-8"?>
<!-- Generator: Adobe Illustrator 24.3.0, SVG Export Plug-In . SVG Version: 6.00 Build 0)  -->
<svg version="1.1" id="Layer_1" xmlns="http://www.w3.org/2000/svg" xmlns:xlink="http://www.w3.org/1999/xlink" x="0px" y="0px"
	 viewBox="0 0 360 144" style="enable-background:new 0 0 360 144;" xml:space="preserve">
<style type="text/css">
	.st0{fill:#CE0058;}
</style>
<path class="st0" d="M126.03,69.82c1.27,0,2.28,0,3.38,0c0,1.49,0,2.9,0,4.43c-1.03,0-2.07,0-3.25,0c0,3.76,0,7.4,0,11.11
	c-1.63,0-3.11,0-4.71,0c0-3.66,0-7.27,0-11c-0.88,0-1.65,0-2.53,0c0-1.53,0-2.94,0-4.48c0.76-0.04,1.56-0.08,2.47-0.12
	c0.05-2.16-0.24-4.41,1.88-5.86c1.9-1.29,4.01-0.65,6.14-0.84c0,1.53,0,2.93,0,4.25c-1.04,0.25-2.1,0.38-3.05,0.79
	C126.09,68.21,126.15,69.1,126.03,69.82z"/>
<path class="st0" d="M243.78,72.41c-1.94-2.15-2.62-4.27-1.35-6.85c2.88,3.16,6.24,5.2,10.64,5.42c-0.04-0.44-0.09-0.79-0.11-1.15
	c-0.13-2.18,0.78-3.84,2.65-4.89c1.89-1.06,3.79-0.89,5.55,0.37c1.45,1.04,1.43,1.07,2.93,0.04c0.18-0.12,0.36-0.25,0.7-0.27
	c-0.5,0.9-0.99,1.8-1.58,2.87c0.92-0.26,1.7-0.47,2.55-0.71c-0.06,0.18-0.05,0.31-0.11,0.36c-1.71,1.38-2.25,3.15-2.53,5.35
	c-1.2,9.69-12.31,15.11-20.82,10.32c-0.22-0.12-0.43-0.28-0.73-0.47c1.19-0.2,2.3-0.28,3.35-0.59c1.03-0.3,2-0.83,3.01-1.41
	c-2.08-0.59-3.58-1.7-4.38-3.76c0.63-0.04,1.14-0.07,1.65-0.1c-2.02-1.09-3.44-2.54-3.59-5.01
	C242.27,72.08,242.87,72.21,243.78,72.41z"/>
<path class="st0" d="M210.48,64.58c2.9,0.13,5.8,0.23,8.7,0.39c2.47,0.14,4.11,1.87,4.13,4.36c0.03,3.62,0.03,7.25,0,10.87
	c-0.02,2.41-1.68,4.24-4.08,4.27c-5.84,0.07-11.69,0.07-17.54,0c-2.39-0.03-4.07-1.89-4.08-4.28c-0.02-3.62-0.02-7.25,0-10.87
	c0.01-2.45,1.69-4.21,4.15-4.35C204.66,64.81,207.57,64.7,210.48,64.58z M213.83,74.73c-2.35-1.17-4.45-2.22-6.65-3.31
	c0,2.29,0,4.38,0,6.63C209.4,76.94,211.5,75.89,213.83,74.73z"/>
<path class="st0" d="M167.25,86.75c-2,0-4.01,0.06-6-0.01c-3.15-0.12-5.89-2.73-5.98-5.87c-0.11-4.07-0.11-8.16,0-12.23
	c0.08-3.1,2.74-5.8,5.84-5.89c4.15-0.12,8.31-0.12,12.46,0c3,0.09,5.68,2.69,5.79,5.69c0.15,4.19,0.15,8.38,0,12.57
	c-0.11,3.07-2.81,5.6-5.87,5.73C171.4,86.82,169.32,86.75,167.25,86.75C167.24,86.75,167.24,86.75,167.25,86.75z M167.19,84.95
	c0,0.05,0,0.09,0,0.14c1.13,0,2.27,0.02,3.4-0.01c0.87-0.02,1.73-0.08,2.6-0.13c2.34-0.14,4.29-1.78,4.38-4.1
	c0.15-4.07,0.15-8.15,0.01-12.22c-0.08-2.31-2.05-4.06-4.37-4.1c-3.92-0.07-7.85-0.07-11.77,0c-2.37,0.04-4.31,1.82-4.38,4.2
	c-0.12,3.99-0.12,8,0,11.99c0.08,2.4,1.98,4.13,4.37,4.21C163.34,85.01,165.27,84.95,167.19,84.95z"/>
<path class="st0" d="M173.63,74.77c-0.02,3.44-2.87,6.27-6.3,6.28c-3.49,0-6.37-2.88-6.35-6.36c0.02-3.42,2.88-6.27,6.31-6.29
	C170.77,68.39,173.65,71.29,173.63,74.77z M171.82,74.68c-0.02-2.49-2.1-4.52-4.59-4.47c-2.45,0.05-4.44,2.07-4.44,4.51
	c-0.01,2.49,2.04,4.53,4.54,4.52C169.84,79.23,171.84,77.2,171.82,74.68z"/>
<path class="st0" d="M174.01,69.49c-0.79-0.03-1.4-0.71-1.32-1.51c0.09-0.84,0.59-1.29,1.42-1.26c0.84,0.03,1.29,0.55,1.34,1.37
	C175.49,68.85,174.77,69.52,174.01,69.49z"/>
</svg>
