<?xml version="1.0" encoding="utf-8"?>
<!-- Generator: Adobe Illustrator 24.1.0, SVG Export Plug-In . SVG Version: 6.00 Build 0)  -->
<svg version="1.1" id="Layer_1" xmlns="http://www.w3.org/2000/svg" xmlns:xlink="http://www.w3.org/1999/xlink" x="0px" y="0px"
	 viewBox="0 0 144.89 49.16" style="enable-background:new 0 0 144.89 49.16;" xml:space="preserve">
<style type="text/css">
	.st0{fill:#CD1D5B;}
</style>
<g>
	<g>
		<path class="st0" d="M32.45,35.13c-0.06,0-0.12-0.01-0.18-0.02v0.03l-0.23-0.11c-3.22-1.57-7.31-4.93-8.55-8.07
			c-0.03-0.08-0.06-0.16-0.09-0.23c-0.03-0.09-0.05-0.16-0.08-0.24c-0.03-0.09-0.05-0.16-0.07-0.24c-0.02-0.09-0.04-0.16-0.06-0.24
			c-0.02-0.09-0.03-0.17-0.05-0.24c-0.02-0.09-0.03-0.17-0.04-0.24c-0.01-0.1-0.02-0.17-0.02-0.24c-0.01-0.1-0.01-0.17-0.01-0.24
			c0-0.09,0-0.17,0-0.24c0-0.09,0.01-0.17,0.02-0.24c0.01-0.09,0.02-0.16,0.03-0.24c0.01-0.09,0.03-0.16,0.04-0.24
			c0.02-0.08,0.04-0.16,0.06-0.23c0.18-0.64,0.51-1.24,1-1.79c0.83-0.94,1.97-1.44,3.28-1.45l0.4,0.01
			c1.78,0.13,3.52,1.15,4.32,2.55c0.03,0.04,0.12,0.14,0.22,0.15c0.09-0.01,0.19-0.12,0.21-0.15l0.01-0.01
			c0.8-1.39,2.53-2.41,4.32-2.54l0.4-0.01c1.31,0,2.45,0.51,3.29,1.45c0.49,0.55,0.82,1.15,1,1.79l0,0
			c0.02,0.08,0.04,0.15,0.05,0.22c0.02,0.09,0.03,0.16,0.04,0.23c0.01,0.09,0.02,0.16,0.03,0.23c0.01,0.09,0.01,0.16,0.02,0.24
			c0,0.09,0,0.16,0,0.24v0.02c0,0.07-0.01,0.14-0.01,0.22c-0.01,0.09-0.01,0.17-0.02,0.24c-0.01,0.09-0.02,0.17-0.03,0.24
			c-0.02,0.1-0.03,0.17-0.05,0.24c-0.02,0.09-0.04,0.17-0.06,0.24c-0.02,0.09-0.05,0.17-0.07,0.24c-0.03,0.09-0.05,0.16-0.08,0.24
			c-0.03,0.09-0.06,0.16-0.09,0.24c-1.24,3.15-5.33,6.51-8.55,8.08l-0.23,0.11v-0.03C32.56,35.12,32.5,35.12,32.45,35.13
			 M26.86,18.05c1.87-1.87,3.55-3.33,5.16-4.46c0.01-0.01,0.03-0.02,0.05-0.03l0.11-0.11l0.03,0.05c0.07-0.02,0.15-0.03,0.24-0.04
			c0.13,0,0.24,0.03,0.34,0.07h0.01l0.04,0.02c0.02,0.01,0.04,0.03,0.06,0.04c1.59,1.12,3.28,2.58,5.15,4.45l0.29,0.29l-0.41-0.02
			c-0.13-0.01-0.26-0.01-0.39-0.01c-1.92-0.02-3.46,0.61-4.76,1.94c-0.05,0.07-0.18,0.12-0.32,0.12c-0.14,0-0.27-0.05-0.33-0.14
			c-1.27-1.29-2.79-1.92-4.66-1.92c-0.03,0-0.06,0-0.09,0c-0.13,0-0.26,0.01-0.39,0.01l-0.41,0.02L26.86,18.05z M44.33,25.04
			c0-0.07,0.01-0.14,0.01-0.21l0-0.12c0-3.46-3.62-7.27-4.35-8c-0.91-0.91-5.04-4.82-7.2-5.92c-0.07-0.04-0.19-0.07-0.35-0.07
			c-0.16,0-0.28,0.03-0.33,0.06c-2.18,1.1-6.31,5.02-7.22,5.93c-0.73,0.73-4.35,4.53-4.35,7.97c0,0,0.01,0.26,0.01,0.35
			c0.32,4.38,4.11,8.54,11.57,12.72c0.07,0.04,0.17,0.07,0.32,0.07c0.15,0,0.26-0.03,0.31-0.06C40.23,33.59,44.01,29.43,44.33,25.04
			"/>
		<path class="st0" d="M33.32,25.46c-0.04-0.03-0.08-0.05-0.13-0.08c-0.22-0.12-0.47-0.19-0.74-0.19h0h-0.01h0
			c-0.27,0-0.52,0.07-0.74,0.19c-0.04,0.02-0.09,0.05-0.13,0.08c-0.08,0.06-0.16,0.12-0.23,0.18c-0.28,0.27-0.45,0.61-0.45,0.92
			c0,0.04,0,0.08,0,0.11c0.02,0.29,0.1,0.5,0.24,0.67c0.03,0.04,0.07,0.08,0.11,0.12c0.06,0.06,0.13,0.11,0.2,0.16l0.05,0.03
			c0.06,0.03,0.07,0.25,0.02,0.48l-0.02,0.09c-0.04,0.23-0.12,0.61-0.16,0.84l-0.36,1.91c-0.04,0.23,0.12,0.42,0.35,0.42h0.25h0.47
			h0.8h0.33h0.4c0.24,0,0.4-0.19,0.35-0.42l-0.36-1.91c-0.04-0.23-0.12-0.61-0.16-0.84l-0.02-0.09c-0.04-0.23-0.03-0.45,0.02-0.48
			l0.05-0.03c0.07-0.05,0.14-0.1,0.2-0.16c0.04-0.04,0.08-0.08,0.11-0.12c0.13-0.17,0.22-0.38,0.24-0.67c0-0.04,0-0.07,0-0.11
			c0-0.31-0.17-0.66-0.45-0.92C33.48,25.57,33.4,25.51,33.32,25.46"/>
	</g>
	<path class="st0" d="M47.78,29.17c0-0.36,0.19-0.67,0.57-0.92c0.18-0.13,0.39-0.19,0.62-0.19c0.33,0,0.62,0.14,0.9,0.41
		c0.54,0.61,1.13,1.07,1.75,1.38c0.62,0.31,1.37,0.46,2.24,0.46c0.69-0.02,1.29-0.18,1.82-0.47c0.52-0.3,0.79-0.78,0.79-1.45
		c0-0.61-0.27-1.09-0.8-1.41c-0.53-0.33-1.32-0.63-2.35-0.9c-1.01-0.27-1.85-0.56-2.52-0.85c-0.67-0.3-1.23-0.73-1.7-1.3
		c-0.46-0.57-0.69-1.32-0.69-2.24c0-0.81,0.23-1.53,0.69-2.14c0.46-0.61,1.08-1.09,1.84-1.44c0.77-0.34,1.6-0.52,2.51-0.52
		c0.87,0,1.73,0.16,2.59,0.49c0.86,0.33,1.56,0.82,2.1,1.49c0.22,0.25,0.33,0.52,0.33,0.79c0,0.29-0.15,0.57-0.43,0.84
		c-0.18,0.16-0.41,0.24-0.68,0.24c-0.32,0-0.59-0.11-0.79-0.33c-0.38-0.43-0.85-0.77-1.4-1c-0.55-0.23-1.16-0.35-1.83-0.35
		c-0.69,0-1.27,0.14-1.75,0.42c-0.48,0.28-0.72,0.76-0.72,1.42c0.02,0.63,0.29,1.1,0.83,1.41c0.53,0.31,1.35,0.61,2.45,0.89
		c0.96,0.25,1.76,0.52,2.39,0.81c0.63,0.29,1.17,0.72,1.6,1.29c0.43,0.57,0.65,1.32,0.65,2.24c0,0.85-0.24,1.59-0.73,2.21
		c-0.49,0.62-1.13,1.1-1.91,1.44c-0.79,0.33-1.62,0.5-2.51,0.5c-1.14,0-2.19-0.2-3.16-0.6c-0.97-0.4-1.79-1.03-2.46-1.9
		C47.86,29.65,47.78,29.41,47.78,29.17"/>
	<path class="st0" d="M74.66,18.09c0.24,0.24,0.37,0.57,0.37,0.96v11.77c0,0.36-0.12,0.67-0.37,0.92c-0.24,0.25-0.56,0.38-0.93,0.38
		c-0.38,0-0.69-0.12-0.92-0.37c-0.24-0.24-0.35-0.56-0.35-0.94v-0.71c-0.47,0.63-1.11,1.17-1.92,1.61
		c-0.81,0.44-1.69,0.66-2.63,0.66c-1.23,0-2.35-0.31-3.35-0.95c-1-0.63-1.79-1.51-2.36-2.64c-0.57-1.13-0.85-2.4-0.85-3.81
		c0-1.41,0.28-2.68,0.85-3.81c0.57-1.13,1.35-2.01,2.35-2.65c0.99-0.63,2.09-0.95,3.28-0.95c0.96,0,1.85,0.2,2.67,0.6
		c0.82,0.4,1.48,0.9,1.97,1.52v-0.65c0-0.38,0.12-0.7,0.35-0.95c0.23-0.25,0.54-0.38,0.92-0.38C74.1,17.72,74.41,17.85,74.66,18.09
		 M70.45,29.36c0.66-0.43,1.18-1.03,1.55-1.79c0.37-0.76,0.56-1.62,0.56-2.58c0-0.94-0.19-1.79-0.56-2.55
		c-0.37-0.76-0.89-1.36-1.55-1.8c-0.66-0.44-1.41-0.67-2.27-0.67c-0.85,0-1.61,0.22-2.27,0.65s-1.18,1.03-1.55,1.79
		c-0.37,0.76-0.56,1.62-0.56,2.58c0,0.96,0.19,1.82,0.56,2.58c0.37,0.76,0.89,1.36,1.55,1.79c0.66,0.43,1.41,0.65,2.27,0.65
		C69.04,30.01,69.79,29.8,70.45,29.36"/>
	<path class="st0" d="M83.78,14.93c-0.28,0.36-0.42,0.8-0.42,1.33v1.9h2.69c0.36,0,0.65,0.11,0.88,0.34
		c0.23,0.23,0.34,0.51,0.34,0.85c0,0.34-0.11,0.62-0.34,0.84c-0.23,0.22-0.52,0.32-0.88,0.32h-2.69v10.31
		c0,0.36-0.12,0.67-0.37,0.92c-0.24,0.25-0.56,0.38-0.94,0.38c-0.36,0-0.67-0.13-0.91-0.38c-0.25-0.25-0.37-0.56-0.37-0.92V20.52
		H79.1c-0.34,0-0.63-0.11-0.87-0.32c-0.24-0.22-0.35-0.5-0.35-0.84c0-0.34,0.12-0.63,0.35-0.85c0.23-0.23,0.52-0.34,0.87-0.34h1.68
		v-1.9c0-1.27,0.41-2.28,1.22-3.03c0.81-0.75,1.96-1.13,3.45-1.13c0.61,0,1.16,0.11,1.63,0.34c0.47,0.23,0.71,0.57,0.71,1.02
		c0,0.34-0.1,0.63-0.31,0.85c-0.21,0.23-0.46,0.34-0.75,0.34c-0.07,0-0.27-0.04-0.6-0.11c-0.4-0.11-0.74-0.16-1.03-0.16
		C84.5,14.39,84.06,14.57,83.78,14.93"/>
	<path class="st0" d="M101.71,25.31c-0.25,0.23-0.55,0.34-0.9,0.34h-9.55c0.13,1.32,0.63,2.38,1.51,3.17
		c0.88,0.8,1.95,1.19,3.22,1.19c0.87,0,1.57-0.13,2.12-0.38c0.54-0.25,1.02-0.58,1.44-0.98c0.27-0.16,0.53-0.24,0.79-0.24
		c0.31,0,0.57,0.11,0.77,0.33s0.31,0.47,0.31,0.76c0,0.38-0.18,0.72-0.54,1.03c-0.53,0.52-1.22,0.97-2.09,1.33
		c-0.87,0.36-1.75,0.54-2.66,0.54c-1.47,0-2.75-0.31-3.87-0.92c-1.11-0.61-1.97-1.47-2.58-2.58c-0.61-1.1-0.91-2.35-0.91-3.74
		c0-1.52,0.31-2.85,0.94-4c0.62-1.15,1.45-2.03,2.47-2.64c1.02-0.61,2.12-0.92,3.3-0.92c1.16,0,2.24,0.3,3.26,0.9
		c1.01,0.6,1.83,1.42,2.44,2.47c0.61,1.05,0.93,2.22,0.95,3.53C102.1,24.8,101.96,25.08,101.71,25.31 M92.84,20.83
		c-0.74,0.57-1.23,1.45-1.47,2.65h8v-0.22c-0.09-0.96-0.52-1.74-1.29-2.36c-0.77-0.62-1.64-0.92-2.62-0.92
		C94.45,19.98,93.58,20.26,92.84,20.83"/>
	<path class="st0" d="M107.77,31.75c-0.25,0.25-0.56,0.38-0.92,0.38s-0.66-0.13-0.91-0.38c-0.24-0.25-0.37-0.56-0.37-0.92V13.36
		c0-0.36,0.13-0.67,0.38-0.92c0.25-0.25,0.56-0.38,0.92-0.38c0.36,0,0.66,0.13,0.91,0.38c0.24,0.25,0.37,0.56,0.37,0.92v17.47
		C108.15,31.19,108.02,31.5,107.77,31.75"/>
	<path class="st0" d="M123.98,18.16c0.24,0.25,0.37,0.56,0.37,0.92V30.8c0,2.26-0.62,3.95-1.87,5.07c-1.25,1.12-2.89,1.68-4.94,1.68
		c-0.67,0-1.33-0.06-1.98-0.19c-0.65-0.13-1.18-0.3-1.6-0.52c-0.67-0.31-1-0.72-1-1.25c0-0.09,0.02-0.21,0.05-0.35
		c0.11-0.31,0.26-0.54,0.46-0.71c0.2-0.16,0.42-0.24,0.68-0.24c0.15,0,0.28,0.03,0.41,0.08c0.56,0.25,1.06,0.45,1.49,0.6
		c0.43,0.14,0.94,0.22,1.52,0.22c2.8,0,4.2-1.44,4.2-4.31v-0.54c-0.49,0.65-1.12,1.16-1.89,1.52c-0.77,0.36-1.65,0.54-2.65,0.54
		c-1.5,0-2.67-0.48-3.51-1.44c-0.84-0.96-1.26-2.21-1.26-3.77v-8.11c0-0.38,0.12-0.69,0.35-0.94c0.23-0.24,0.54-0.37,0.92-0.37
		s0.69,0.13,0.94,0.38c0.25,0.25,0.37,0.56,0.37,0.92v7.43c0,1.19,0.26,2.07,0.79,2.64c0.52,0.57,1.32,0.85,2.39,0.85
		c1.03,0,1.88-0.32,2.55-0.98c0.67-0.65,1-1.49,1-2.52v-7.43c0-0.38,0.12-0.69,0.35-0.94c0.24-0.24,0.54-0.37,0.92-0.37
		C123.42,17.78,123.73,17.91,123.98,18.16"/>
</g>
<g>
	<g>
		<path class="st0" d="M-141.54-80.56c-0.09,0-0.17-0.01-0.24-0.02v0.05l-0.31-0.15c-4.4-2.14-9.99-6.74-11.69-11.04
			c-0.04-0.11-0.08-0.22-0.12-0.32c-0.04-0.12-0.07-0.22-0.11-0.32c-0.04-0.12-0.07-0.22-0.09-0.33c-0.03-0.12-0.06-0.22-0.08-0.33
			c-0.03-0.12-0.05-0.23-0.06-0.33c-0.02-0.13-0.04-0.23-0.05-0.33c-0.01-0.13-0.02-0.23-0.03-0.33c-0.01-0.13-0.01-0.23-0.01-0.33
			c0-0.13,0-0.23,0-0.33c0-0.13,0.01-0.23,0.02-0.33c0.01-0.12,0.02-0.23,0.04-0.33c0.02-0.12,0.04-0.22,0.06-0.32
			c0.02-0.12,0.05-0.22,0.08-0.32c0.24-0.88,0.7-1.7,1.37-2.45c1.14-1.29,2.69-1.97,4.49-1.98l0.54,0.02
			c2.44,0.18,4.81,1.58,5.91,3.49c0.04,0.05,0.17,0.2,0.3,0.2c0.13-0.01,0.26-0.16,0.29-0.2l0.01-0.01c1.1-1.9,3.46-3.3,5.9-3.48
			l0.54-0.02c1.8,0.01,3.35,0.69,4.49,1.98c0.66,0.75,1.12,1.57,1.36,2.44l0,0c0.03,0.1,0.05,0.21,0.07,0.31
			c0.02,0.12,0.04,0.22,0.06,0.32c0.02,0.12,0.03,0.22,0.04,0.32c0.01,0.12,0.02,0.22,0.02,0.32c0,0.13,0,0.22,0,0.32v0.03
			c0,0.1-0.01,0.2-0.01,0.3c-0.01,0.13-0.02,0.23-0.03,0.33c-0.01,0.12-0.03,0.23-0.05,0.33c-0.02,0.13-0.04,0.23-0.06,0.33
			c-0.03,0.13-0.05,0.23-0.08,0.33c-0.03,0.13-0.06,0.23-0.09,0.33c-0.04,0.12-0.07,0.23-0.11,0.33c-0.04,0.12-0.08,0.22-0.12,0.33
			c-1.7,4.3-7.29,8.9-11.7,11.04l-0.31,0.15v-0.05C-141.38-80.57-141.46-80.56-141.54-80.56 M-149.18-103.91
			c2.56-2.55,4.86-4.55,7.05-6.1c0.02-0.02,0.04-0.03,0.07-0.05l0.15-0.15l0.04,0.07c0.1-0.03,0.21-0.05,0.32-0.05
			c0.17,0,0.33,0.04,0.46,0.1h0.01l0.05,0.03c0.03,0.02,0.06,0.04,0.08,0.06c2.17,1.54,4.48,3.53,7.04,6.09l0.39,0.39l-0.56-0.03
			c-0.18-0.01-0.35-0.01-0.53-0.02c-2.63-0.03-4.73,0.84-6.51,2.65c-0.07,0.1-0.24,0.17-0.43,0.17c-0.2,0-0.37-0.07-0.45-0.19
			c-1.73-1.76-3.82-2.63-6.37-2.63c-0.04,0-0.09,0-0.13,0c-0.17,0-0.35,0.01-0.53,0.02l-0.56,0.03L-149.18-103.91z M-125.29-94.35
			c0.01-0.09,0.01-0.19,0.01-0.28l0-0.16c0-4.73-4.96-9.94-5.95-10.93c-1.24-1.24-6.89-6.6-9.85-8.09c-0.1-0.05-0.26-0.1-0.47-0.1
			c-0.22,0-0.38,0.05-0.46,0.09c-2.98,1.51-8.63,6.86-9.87,8.1c-0.99,0.99-5.94,6.2-5.95,10.9c0,0,0.01,0.36,0.02,0.48
			c0.44,5.99,5.62,11.68,15.82,17.39c0.09,0.05,0.24,0.09,0.43,0.1c0.2,0,0.35-0.05,0.42-0.09
			C-130.9-82.66-125.73-88.35-125.29-94.35"/>
		<path class="st0" d="M-140.35-93.78c-0.06-0.04-0.11-0.07-0.17-0.11c-0.3-0.16-0.64-0.26-1.01-0.26h0h-0.02h0
			c-0.37,0-0.71,0.1-1.01,0.26c-0.06,0.03-0.12,0.07-0.17,0.11c-0.11,0.08-0.22,0.16-0.31,0.25c-0.38,0.37-0.62,0.84-0.62,1.26
			c0,0.05,0,0.1,0,0.15c0.02,0.4,0.14,0.69,0.32,0.92c0.05,0.06,0.1,0.11,0.15,0.16c0.08,0.08,0.17,0.15,0.27,0.21l0.07,0.04
			c0.08,0.05,0.09,0.34,0.03,0.66l-0.02,0.13c-0.06,0.32-0.16,0.83-0.22,1.15l-0.5,2.61c-0.06,0.31,0.16,0.57,0.48,0.57h0.34h0.65
			h1.09h0.45h0.54c0.33,0,0.54-0.26,0.48-0.57l-0.5-2.61c-0.06-0.32-0.16-0.83-0.22-1.15l-0.02-0.13c-0.06-0.32-0.05-0.61,0.03-0.66
			l0.07-0.04c0.1-0.07,0.19-0.14,0.27-0.21c0.06-0.05,0.1-0.1,0.15-0.16c0.18-0.23,0.3-0.52,0.33-0.92c0-0.05,0-0.1,0-0.15
			c0-0.43-0.24-0.9-0.62-1.26C-140.13-93.62-140.23-93.7-140.35-93.78"/>
	</g>
	<g>
		<path class="st0" d="M-172.12-56.2c0-0.29,0.15-0.53,0.46-0.74c0.14-0.1,0.31-0.15,0.5-0.15c0.26,0,0.5,0.11,0.72,0.33
			c0.43,0.49,0.9,0.86,1.4,1.1c0.5,0.25,1.09,0.37,1.79,0.37c0.55-0.01,1.03-0.14,1.45-0.38c0.42-0.24,0.63-0.62,0.63-1.16
			c0-0.49-0.21-0.87-0.64-1.13c-0.43-0.26-1.05-0.5-1.87-0.72c-0.81-0.22-1.48-0.44-2.01-0.68c-0.54-0.24-0.99-0.59-1.35-1.04
			c-0.37-0.45-0.55-1.05-0.55-1.79c0-0.65,0.18-1.22,0.55-1.71c0.37-0.49,0.86-0.87,1.47-1.15c0.61-0.27,1.28-0.41,2-0.41
			c0.69,0,1.38,0.13,2.07,0.39c0.69,0.26,1.25,0.66,1.68,1.19c0.17,0.2,0.26,0.41,0.26,0.63c0,0.23-0.12,0.46-0.35,0.67
			c-0.14,0.13-0.32,0.2-0.54,0.2c-0.26,0-0.47-0.09-0.63-0.26c-0.3-0.35-0.68-0.61-1.12-0.8c-0.44-0.19-0.93-0.28-1.46-0.28
			c-0.55,0-1.01,0.11-1.4,0.34c-0.38,0.22-0.57,0.6-0.57,1.14c0.01,0.51,0.23,0.88,0.66,1.13c0.43,0.25,1.08,0.48,1.96,0.71
			c0.77,0.2,1.4,0.42,1.91,0.65c0.51,0.23,0.93,0.57,1.28,1.03c0.35,0.45,0.52,1.05,0.52,1.79c0,0.68-0.19,1.27-0.58,1.77
			c-0.39,0.5-0.9,0.88-1.53,1.15s-1.3,0.4-2,0.4c-0.91,0-1.75-0.16-2.52-0.48c-0.77-0.32-1.43-0.82-1.96-1.52
			C-172.05-55.82-172.12-56.01-172.12-56.2"/>
		<path class="st0" d="M-150.65-65.05c0.2,0.19,0.29,0.45,0.29,0.77v9.4c0,0.29-0.1,0.53-0.29,0.74c-0.19,0.2-0.44,0.3-0.75,0.3
			c-0.3,0-0.55-0.1-0.74-0.29c-0.19-0.2-0.28-0.44-0.28-0.75v-0.56c-0.37,0.51-0.89,0.94-1.54,1.29c-0.65,0.35-1.35,0.53-2.1,0.53
			c-0.98,0-1.87-0.25-2.68-0.76c-0.8-0.5-1.43-1.21-1.88-2.11c-0.46-0.9-0.68-1.92-0.68-3.04c0-1.13,0.23-2.14,0.68-3.04
			c0.46-0.9,1.08-1.61,1.87-2.11c0.79-0.51,1.67-0.76,2.62-0.76c0.76,0,1.48,0.16,2.13,0.48c0.66,0.32,1.18,0.72,1.57,1.21v-0.52
			c0-0.3,0.1-0.56,0.28-0.76c0.19-0.2,0.43-0.3,0.74-0.3C-151.1-65.34-150.85-65.25-150.65-65.05 M-154.01-56.05
			c0.53-0.35,0.94-0.82,1.23-1.43c0.3-0.61,0.44-1.29,0.44-2.06c0-0.75-0.15-1.43-0.44-2.04c-0.3-0.61-0.71-1.09-1.23-1.44
			c-0.53-0.35-1.13-0.53-1.81-0.53c-0.68,0-1.28,0.17-1.81,0.52c-0.53,0.35-0.94,0.82-1.23,1.43c-0.3,0.61-0.44,1.29-0.44,2.06
			c0,0.77,0.15,1.45,0.44,2.06c0.29,0.61,0.71,1.08,1.23,1.43c0.53,0.35,1.13,0.52,1.81,0.52
			C-155.14-55.53-154.54-55.7-154.01-56.05"/>
		<path class="st0" d="M-143.37-67.57c-0.22,0.29-0.34,0.64-0.34,1.06V-65h2.14c0.29,0,0.52,0.09,0.7,0.27
			c0.18,0.18,0.27,0.41,0.27,0.68c0,0.27-0.09,0.5-0.27,0.67c-0.18,0.17-0.42,0.26-0.7,0.26h-2.14v8.23c0,0.29-0.1,0.53-0.29,0.74
			c-0.19,0.2-0.44,0.3-0.75,0.3c-0.29,0-0.53-0.1-0.73-0.3c-0.2-0.2-0.29-0.45-0.29-0.74v-8.23h-1.34c-0.27,0-0.51-0.09-0.69-0.26
			c-0.19-0.17-0.28-0.4-0.28-0.67c0-0.27,0.09-0.5,0.28-0.68c0.19-0.18,0.42-0.27,0.69-0.27h1.34v-1.52c0-1.01,0.32-1.82,0.97-2.42
			c0.65-0.6,1.57-0.9,2.75-0.9c0.49,0,0.92,0.09,1.3,0.27c0.38,0.18,0.56,0.45,0.56,0.81c0,0.27-0.08,0.5-0.25,0.68
			c-0.17,0.18-0.37,0.27-0.6,0.27c-0.06,0-0.22-0.03-0.48-0.09c-0.32-0.09-0.59-0.13-0.82-0.13
			C-142.79-68.01-143.14-67.86-143.37-67.57"/>
		<path class="st0" d="M-129.05-59.29c-0.2,0.18-0.44,0.27-0.72,0.27h-7.63c0.1,1.05,0.5,1.9,1.2,2.53c0.7,0.64,1.56,0.95,2.57,0.95
			c0.69,0,1.26-0.1,1.69-0.3c0.43-0.2,0.82-0.46,1.15-0.78c0.22-0.13,0.43-0.19,0.63-0.19c0.25,0,0.45,0.09,0.62,0.26
			c0.17,0.17,0.25,0.38,0.25,0.61c0,0.3-0.14,0.58-0.43,0.82c-0.42,0.42-0.97,0.77-1.67,1.06c-0.69,0.29-1.4,0.43-2.12,0.43
			c-1.17,0-2.2-0.25-3.09-0.74c-0.89-0.49-1.57-1.18-2.06-2.06c-0.48-0.88-0.73-1.88-0.73-2.99c0-1.21,0.25-2.28,0.75-3.2
			c0.5-0.92,1.16-1.62,1.97-2.11c0.82-0.49,1.69-0.74,2.63-0.74c0.92,0,1.79,0.24,2.6,0.72c0.81,0.48,1.46,1.13,1.95,1.97
			c0.49,0.84,0.74,1.78,0.76,2.82C-128.74-59.69-128.85-59.47-129.05-59.29 M-136.13-62.86c-0.59,0.46-0.98,1.16-1.17,2.11h6.39
			v-0.17c-0.07-0.76-0.41-1.39-1.03-1.88c-0.61-0.49-1.31-0.74-2.09-0.74C-134.84-63.54-135.54-63.32-136.13-62.86"/>
		<path class="st0" d="M-124.21-54.14c-0.2,0.2-0.45,0.3-0.74,0.3c-0.29,0-0.53-0.1-0.73-0.3c-0.19-0.2-0.29-0.45-0.29-0.74v-13.95
			c0-0.29,0.1-0.53,0.3-0.74c0.2-0.2,0.45-0.3,0.74-0.3c0.29,0,0.53,0.1,0.73,0.3c0.19,0.2,0.29,0.45,0.29,0.74v13.95
			C-123.9-54.59-124.01-54.34-124.21-54.14"/>
		<path class="st0" d="M-111.26-65c0.19,0.2,0.29,0.45,0.29,0.74v9.36c0,1.81-0.5,3.16-1.5,4.05c-1,0.9-2.31,1.34-3.94,1.34
			c-0.53,0-1.06-0.05-1.58-0.15c-0.52-0.1-0.95-0.24-1.28-0.41c-0.53-0.25-0.8-0.58-0.8-1c0-0.07,0.01-0.17,0.04-0.28
			c0.09-0.25,0.21-0.43,0.37-0.56c0.16-0.13,0.34-0.19,0.54-0.19c0.12,0,0.22,0.02,0.32,0.06c0.45,0.2,0.85,0.36,1.19,0.48
			c0.35,0.12,0.75,0.17,1.21,0.17c2.24,0,3.36-1.15,3.36-3.44v-0.43c-0.39,0.52-0.89,0.92-1.51,1.21c-0.61,0.29-1.32,0.43-2.11,0.43
			c-1.2,0-2.13-0.38-2.81-1.15c-0.67-0.77-1.01-1.77-1.01-3.01v-6.48c0-0.3,0.09-0.55,0.28-0.75c0.19-0.19,0.43-0.29,0.74-0.29
			c0.3,0,0.55,0.1,0.75,0.3c0.2,0.2,0.29,0.45,0.29,0.74v5.94c0,0.95,0.21,1.66,0.63,2.11c0.42,0.46,1.05,0.68,1.91,0.68
			c0.82,0,1.5-0.26,2.04-0.78c0.53-0.52,0.8-1.19,0.8-2.01v-5.94c0-0.3,0.09-0.55,0.28-0.75c0.19-0.19,0.43-0.29,0.74-0.29
			C-111.71-65.3-111.46-65.2-111.26-65"/>
	</g>
</g>
<rect x="280.21" y="71.45" class="st0" />
<rect x="282.06" y="128.89" style="fill:none;" />
<text transform="matrix(1 0 0 1 303.4082 137.65)"><tspan x="0" y="0" style="font-family:'Gotham-Bold'; font-size:12px;">RGB</tspan><tspan x="26.75" y="0" style="font-family:'Gotham-Book'; font-size:12px;"> 205 29 91 </tspan><tspan x="-15.97" y="14.4" style="font-family:'Gotham-Bold'; font-size:12px;">HEX/HTML</tspan><tspan x="51.08" y="14.4" style="font-family:'Gotham-Book'; font-size:12px;"> CE0058</tspan></text>
</svg>
