<?xml version="1.0" encoding="utf-8"?>
<!-- Generator: Adobe Illustrator 24.3.0, SVG Export Plug-In . SVG Version: 6.00 Build 0)  -->
<svg version="1.1" id="Layer_1" xmlns="http://www.w3.org/2000/svg" xmlns:xlink="http://www.w3.org/1999/xlink" x="0px" y="0px"
	 viewBox="0 0 25.37 24.81" style="enable-background:new 0 0 25.37 24.81;" xml:space="preserve">
<style type="text/css">
	.st0{fill:#CE0058;}
</style>
<path class="st0" d="M3.28,10.54c-1.9-2.1-2.56-4.17-1.32-6.7c2.82,3.09,6.1,5.09,10.4,5.3c-0.04-0.43-0.08-0.78-0.1-1.12
	c-0.13-2.13,0.76-3.75,2.59-4.78c1.85-1.04,3.7-0.87,5.42,0.36c1.42,1.02,1.4,1.04,2.86,0.04c0.18-0.12,0.36-0.24,0.68-0.27
	c-0.48,0.88-0.97,1.76-1.55,2.81c0.9-0.25,1.66-0.46,2.5-0.7c-0.05,0.18-0.05,0.3-0.11,0.35c-1.67,1.35-2.2,3.08-2.47,5.23
	c-1.18,9.47-12.03,14.77-20.35,10.09c-0.22-0.12-0.42-0.27-0.71-0.46c1.16-0.19,2.25-0.27,3.28-0.57c1.01-0.29,1.95-0.81,2.94-1.38
	c-2.03-0.57-3.5-1.66-4.28-3.67c0.62-0.04,1.12-0.06,1.62-0.09c-1.98-1.06-3.37-2.48-3.51-4.9C1.81,10.22,2.39,10.34,3.28,10.54z"/>
</svg>
