<?xml version="1.0" encoding="utf-8"?>
<!-- Generator: Adobe Illustrator 24.3.0, SVG Export Plug-In . SVG Version: 6.00 Build 0)  -->
<svg version="1.1" id="Layer_1" xmlns="http://www.w3.org/2000/svg" xmlns:xlink="http://www.w3.org/1999/xlink" x="0px" y="0px"
	 viewBox="0 0 25.37 20.77" style="enable-background:new 0 0 25.37 20.77;" xml:space="preserve">
<style type="text/css">
	.st0{fill:#CE0058;}
</style>
<path class="st0" d="M21.08,1.04c2.38,0.13,3.96,1.8,3.98,4.2c0.03,3.49,0.02,6.99,0,10.48c-0.02,2.32-1.62,4.08-3.93,4.11
	c-5.64,0.07-11.27,0.07-16.91,0c-2.3-0.03-3.92-1.82-3.94-4.12c-0.02-3.49-0.02-6.99,0-10.48c0.01-2.36,1.63-4.06,4-4.2
	C7.08,0.88,18.29,0.88,21.08,1.04z M15.92,10.45c-2.27-1.13-4.29-2.14-6.41-3.19c0,2.21,0,4.23,0,6.39
	C11.65,12.58,13.67,11.57,15.92,10.45z"/>
</svg>
