<?xml version="1.0" encoding="utf-8"?>
<!-- Generator: Adobe Illustrator 24.3.0, SVG Export Plug-In . SVG Version: 6.00 Build 0)  -->
<svg version="1.1" id="Layer_1" xmlns="http://www.w3.org/2000/svg" xmlns:xlink="http://www.w3.org/1999/xlink" x="0px" y="0px"
	 viewBox="0 0 47.33 46.39" style="enable-background:new 0 0 47.33 46.39;" xml:space="preserve">
<style type="text/css">
	.st0{enable-background:new    ;}
	.st1{clip-path:url(#SVGID_2_);}
	.st2{clip-path:url(#SVGID_4_);enable-background:new    ;}
	.st3{clip-path:url(#SVGID_6_);}
	.st4{clip-path:url(#SVGID_8_);}
	.st5{clip-path:url(#SVGID_10_);fill:#FFFFFF;}
	.st6{clip-path:url(#SVGID_12_);fill:none;stroke:#FFFFFF;stroke-width:2;stroke-miterlimit:10;}
	.st7{clip-path:url(#SVGID_14_);}
	.st8{clip-path:url(#SVGID_16_);fill:#FFFFFF;}
</style>
<g>
	<g class="st0">
		<g>
			<g>
				<defs>
					<path id="SVGID_1_" d="M41.42,22.34V8.12c0-2.09-1.7-3.79-3.79-3.79h-4.17V1.59c0-0.7-0.57-1.26-1.26-1.26
						c-0.7,0-1.26,0.57-1.26,1.26v2.74H10.97V1.59c0-0.7-0.57-1.26-1.26-1.26c-0.7,0-1.26,0.57-1.26,1.26v2.74H4.52
						c-2.09,0-3.79,1.7-3.79,3.79v29.11c0,2.09,1.7,3.79,3.79,3.79h18.23c4.66,5.65,13.02,6.45,18.67,1.79s6.45-13.02,1.79-18.67
						C42.68,23.48,42.08,22.88,41.42,22.34z M4.52,6.85h3.92v2.73c0,0.7,0.57,1.26,1.26,1.26c0.7,0,1.26-0.57,1.26-1.26V6.85h19.96
						v2.73c0,0.7,0.57,1.26,1.26,1.26c0.7,0,1.26-0.57,1.26-1.26V6.85h4.17c0.7,0,1.26,0.57,1.26,1.26v6.11H3.26V8.12
						C3.26,7.42,3.83,6.85,4.52,6.85z M4.52,38.49c-0.7,0-1.26-0.57-1.26-1.26V16.75H38.9v3.94c-6.54-3.29-14.51-0.64-17.8,5.9
						c-1.88,3.74-1.88,8.15,0,11.9H4.52z M32.96,43.29c-5.93,0-10.74-4.81-10.74-10.74s4.81-10.74,10.74-10.74
						c5.93,0,10.74,4.81,10.74,10.74C43.69,38.48,38.89,43.28,32.96,43.29z"/>
				</defs>
				<clipPath id="SVGID_2_">
					<use xlink:href="#SVGID_1_"  style="overflow:visible;"/>
				</clipPath>
				<g class="st1">
					<defs>
						<rect id="SVGID_3_" x="0.73" y="-0.16" width="46" height="46"/>
					</defs>
					<clipPath id="SVGID_4_">
						<use xlink:href="#SVGID_3_"  style="overflow:visible;"/>
					</clipPath>
					<g class="st2">
						<g>
							<defs>
								<rect id="SVGID_5_" x="-9.27" y="-10.16" width="68" height="68"/>
							</defs>
							<clipPath id="SVGID_6_">
								<use xlink:href="#SVGID_5_"  style="overflow:visible;"/>
							</clipPath>
							<g class="st3">
								<defs>
									<path id="SVGID_7_" d="M41.42,22.34V8.12c0-2.09-1.7-3.79-3.79-3.79h-4.17V1.59c0-0.7-0.57-1.26-1.26-1.26
										c-0.7,0-1.26,0.57-1.26,1.26v2.74H10.97V1.59c0-0.7-0.57-1.26-1.26-1.26c-0.7,0-1.26,0.57-1.26,1.26v2.74H4.52
										c-2.09,0-3.79,1.7-3.79,3.79v29.11c0,2.09,1.7,3.79,3.79,3.79h18.23c4.66,5.65,13.02,6.45,18.67,1.79
										s6.45-13.02,1.79-18.67C42.68,23.48,42.08,22.88,41.42,22.34z M4.52,6.85h3.92v2.73c0,0.7,0.57,1.26,1.26,1.26
										c0.7,0,1.26-0.57,1.26-1.26V6.85h19.96v2.73c0,0.7,0.57,1.26,1.26,1.26c0.7,0,1.26-0.57,1.26-1.26V6.85h4.17
										c0.7,0,1.26,0.57,1.26,1.26v6.11H3.26V8.12C3.26,7.42,3.83,6.85,4.52,6.85z M4.52,38.49c-0.7,0-1.26-0.57-1.26-1.26V16.75
										H38.9v3.94c-6.54-3.29-14.51-0.64-17.8,5.9c-1.88,3.74-1.88,8.15,0,11.9H4.52z M32.96,43.29
										c-5.93,0-10.74-4.81-10.74-10.74s4.81-10.74,10.74-10.74c5.93,0,10.74,4.81,10.74,10.74
										C43.69,38.48,38.89,43.28,32.96,43.29z"/>
								</defs>
								<clipPath id="SVGID_8_">
									<use xlink:href="#SVGID_7_"  style="overflow:visible;"/>
								</clipPath>
								<g class="st4">
									<defs>
										<rect id="SVGID_9_" x="0.73" y="-0.16" width="46" height="46"/>
									</defs>
									<clipPath id="SVGID_10_">
										<use xlink:href="#SVGID_9_"  style="overflow:visible;"/>
									</clipPath>
									<path class="st5" d="M41.42,22.34V8.12c0-2.09-1.7-3.79-3.79-3.79h-4.17V1.59c0-0.7-0.57-1.26-1.26-1.26
										c-0.7,0-1.26,0.57-1.26,1.26v2.74H10.97V1.59c0-0.7-0.57-1.26-1.26-1.26c-0.7,0-1.26,0.57-1.26,1.26v2.74H4.52
										c-2.09,0-3.79,1.7-3.79,3.79v29.11c0,2.09,1.7,3.79,3.79,3.79h18.23c4.66,5.65,13.02,6.45,18.67,1.79
										s6.45-13.02,1.79-18.67C42.68,23.48,42.08,22.88,41.42,22.34z M4.52,6.85h3.92v2.73c0,0.7,0.57,1.26,1.26,1.26
										c0.7,0,1.26-0.57,1.26-1.26V6.85h19.96v2.73c0,0.7,0.57,1.26,1.26,1.26c0.7,0,1.26-0.57,1.26-1.26V6.85h4.17
										c0.7,0,1.26,0.57,1.26,1.26v6.11H3.26V8.12C3.26,7.42,3.83,6.85,4.52,6.85z M4.52,38.49c-0.7,0-1.26-0.57-1.26-1.26V16.75
										H38.9v3.94c-6.54-3.29-14.51-0.64-17.8,5.9c-1.88,3.74-1.88,8.15,0,11.9H4.52z M32.96,43.29
										c-5.93,0-10.74-4.81-10.74-10.74s4.81-10.74,10.74-10.74c5.93,0,10.74,4.81,10.74,10.74
										C43.69,38.48,38.89,43.28,32.96,43.29z"/>
								</g>
							</g>
							<g class="st3">
								<defs>
									<rect id="SVGID_11_" x="0.73" y="-0.16" width="46" height="46"/>
								</defs>
								<clipPath id="SVGID_12_">
									<use xlink:href="#SVGID_11_"  style="overflow:visible;"/>
								</clipPath>
								<path class="st6" d="M41.42,22.34V8.12c0-2.09-1.7-3.79-3.79-3.79h-4.17V1.59c0-0.7-0.57-1.26-1.26-1.26
									c-0.7,0-1.26,0.57-1.26,1.26v2.74H10.97V1.59c0-0.7-0.57-1.26-1.26-1.26c-0.7,0-1.26,0.57-1.26,1.26v2.74H4.52
									c-2.09,0-3.79,1.7-3.79,3.79v29.11c0,2.09,1.7,3.79,3.79,3.79h18.23c4.66,5.65,13.02,6.45,18.67,1.79s6.45-13.02,1.79-18.67
									C42.68,23.48,42.08,22.88,41.42,22.34z M4.52,6.85h3.92v2.73c0,0.7,0.57,1.26,1.26,1.26c0.7,0,1.26-0.57,1.26-1.26V6.85
									h19.96v2.73c0,0.7,0.57,1.26,1.26,1.26c0.7,0,1.26-0.57,1.26-1.26V6.85h4.17c0.7,0,1.26,0.57,1.26,1.26v6.11H3.26V8.12
									C3.26,7.42,3.83,6.85,4.52,6.85z M4.52,38.49c-0.7,0-1.26-0.57-1.26-1.26V16.75H38.9v3.94c-6.54-3.29-14.51-0.64-17.8,5.9
									c-1.88,3.74-1.88,8.15,0,11.9H4.52z M32.96,43.29c-5.93,0-10.74-4.81-10.74-10.74c0-5.93,4.81-10.74,10.74-10.74
									c5.93,0,10.74,4.81,10.74,10.74C43.69,38.48,38.89,43.28,32.96,43.29z"/>
							</g>
						</g>
					</g>
				</g>
			</g>
		</g>
	</g>
</g>
<g>
	<defs>
		<path id="SVGID_13_" d="M31.47,36.63l-3.54-3.14c-0.5-0.5-1.32-0.5-1.82,0c-0.5,0.5-0.5,1.3,0,1.8c0.03,0.03,0.07,0.06,0.1,0.09
			l4.64,4.08c0.5,0.5,1.32,0.5,1.82,0c0.07-0.07,0.13-0.14,0.18-0.22l6.65-10.4c0.41-0.57,0.27-1.37-0.31-1.78
			c-0.58-0.41-1.38-0.27-1.79,0.31c-0.02,0.03-0.05,0.07-0.07,0.11L31.47,36.63z"/>
	</defs>
	<clipPath id="SVGID_14_">
		<use xlink:href="#SVGID_13_"  style="overflow:visible;"/>
	</clipPath>
	<g class="st7">
		<defs>
			<rect id="SVGID_15_" x="-615.27" y="-929.16" width="1024" height="2663"/>
		</defs>
		<clipPath id="SVGID_16_">
			<use xlink:href="#SVGID_15_"  style="overflow:visible;"/>
		</clipPath>
		<rect x="20.73" y="21.84" class="st8" width="24" height="23"/>
	</g>
</g>
</svg>
