<?xml version="1.0" encoding="utf-8"?>
<!-- Generator: Adobe Illustrator 24.3.0, SVG Export Plug-In . SVG Version: 6.00 Build 0)  -->
<svg version="1.1" id="Layer_1" xmlns="http://www.w3.org/2000/svg" xmlns:xlink="http://www.w3.org/1999/xlink" x="0px" y="0px"
	 viewBox="0 0 59.72 64.04" style="enable-background:new 0 0 59.72 64.04;" xml:space="preserve">
<style type="text/css">
	.st0{clip-path:url(#SVGID_2_);enable-background:new    ;}
	.st1{clip-path:url(#SVGID_4_);}
	.st2{clip-path:url(#SVGID_6_);}
	.st3{clip-path:url(#SVGID_8_);fill:#FFFFFF;}
	.st4{clip-path:url(#SVGID_10_);}
	.st5{clip-path:url(#SVGID_12_);fill:#FFFFFF;}
	.st6{clip-path:url(#SVGID_14_);}
	.st7{clip-path:url(#SVGID_16_);fill:#FFFFFF;}
	.st8{clip-path:url(#SVGID_18_);}
	.st9{clip-path:url(#SVGID_20_);fill:#FFFFFF;}
	.st10{clip-path:url(#SVGID_22_);enable-background:new    ;}
	.st11{clip-path:url(#SVGID_24_);}
	.st12{clip-path:url(#SVGID_26_);}
	.st13{clip-path:url(#SVGID_28_);fill:#FFFFFF;}
	.st14{clip-path:url(#SVGID_30_);}
	.st15{clip-path:url(#SVGID_32_);fill:#FFFFFF;}
	.st16{clip-path:url(#SVGID_34_);}
	.st17{clip-path:url(#SVGID_36_);fill:#FFFFFF;}
	.st18{clip-path:url(#SVGID_38_);}
	.st19{clip-path:url(#SVGID_40_);fill:#FFFFFF;}
</style>
<g>
	<defs>
		<rect id="SVGID_1_" x="1.53" y="3.66" width="24.27" height="24.22"/>
	</defs>
	<clipPath id="SVGID_2_">
		<use xlink:href="#SVGID_1_"  style="overflow:visible;"/>
	</clipPath>
	<g class="st0">
		<g>
			<defs>
				<rect id="SVGID_3_" x="0.53" y="3.27" width="26" height="25"/>
			</defs>
			<clipPath id="SVGID_4_">
				<use xlink:href="#SVGID_3_"  style="overflow:visible;"/>
			</clipPath>
			<g class="st1">
				<defs>
					<path id="SVGID_5_" d="M22.98,15.77c0,5.13-4.18,9.3-9.32,9.3c-5.14,0-9.32-4.17-9.32-9.3s4.18-9.3,9.32-9.3
						c1.74,0,3.36,0.49,4.75,1.31l2.07-2.03c-1.94-1.32-4.29-2.1-6.82-2.1c-6.69,0-12.14,5.43-12.14,12.11s5.44,12.11,12.14,12.11
						c6.69,0,12.14-5.43,12.14-12.11c0-1.24-0.19-2.44-0.54-3.57l-2.37,2.33C22.94,14.93,22.98,15.35,22.98,15.77"/>
				</defs>
				<clipPath id="SVGID_6_">
					<use xlink:href="#SVGID_5_"  style="overflow:visible;"/>
				</clipPath>
				<g class="st2">
					<defs>
						<rect id="SVGID_7_" x="1.53" y="3.27" width="25" height="25"/>
					</defs>
					<clipPath id="SVGID_8_">
						<use xlink:href="#SVGID_7_"  style="overflow:visible;"/>
					</clipPath>
					<rect x="-3.47" y="-1.34" class="st3" width="34.27" height="34.22"/>
				</g>
			</g>
		</g>
	</g>
</g>
<g>
	<defs>
		<path id="SVGID_9_" d="M26.31,5.58c-0.64-0.64-1.76-0.64-2.39,0L13.6,15.72l-3.39-3.39c-0.64-0.64-1.75-0.64-2.39,0
			c-0.66,0.66-0.66,1.73,0,2.39l5.79,5.77l2.2-2.2L26.31,7.97c0.32-0.32,0.5-0.74,0.5-1.19C26.8,6.32,26.63,5.9,26.31,5.58"/>
	</defs>
	<clipPath id="SVGID_10_">
		<use xlink:href="#SVGID_9_"  style="overflow:visible;"/>
	</clipPath>
	<g class="st4">
		<defs>
			<rect id="SVGID_11_" x="-603.47" y="-1164.73" width="1024" height="2663"/>
		</defs>
		<clipPath id="SVGID_12_">
			<use xlink:href="#SVGID_11_"  style="overflow:visible;"/>
		</clipPath>
		<rect x="2.32" y="0.1" class="st5" width="29.49" height="25.39"/>
	</g>
</g>
<g>
	<defs>
		<path id="SVGID_13_" d="M54.57,15.77c0,5.13-4.18,9.3-9.32,9.3c-5.14,0-9.32-4.17-9.32-9.3s4.18-9.3,9.32-9.3
			c1.74,0,3.36,0.49,4.75,1.31l2.07-2.03c-1.94-1.32-4.29-2.1-6.82-2.1c-6.69,0-12.14,5.43-12.14,12.11s5.44,12.11,12.14,12.11
			c6.69,0,12.14-5.43,12.14-12.11c0-1.24-0.19-2.44-0.54-3.57l-2.37,2.33C54.53,14.93,54.57,15.35,54.57,15.77"/>
	</defs>
	<clipPath id="SVGID_14_">
		<use xlink:href="#SVGID_13_"  style="overflow:visible;"/>
	</clipPath>
	<g class="st6">
		<defs>
			<rect id="SVGID_15_" x="-603.47" y="-1164.73" width="1024" height="2663"/>
		</defs>
		<clipPath id="SVGID_16_">
			<use xlink:href="#SVGID_15_"  style="overflow:visible;"/>
		</clipPath>
		<rect x="28.11" y="-1.34" class="st7" width="34.27" height="34.22"/>
	</g>
</g>
<g>
	<defs>
		<path id="SVGID_17_" d="M57.89,5.58c-0.64-0.64-1.76-0.64-2.39,0L45.19,15.72l-3.39-3.39c-0.64-0.64-1.75-0.64-2.39,0
			c-0.66,0.66-0.66,1.73,0,2.39l5.79,5.77l2.2-2.2L57.89,7.97c0.32-0.32,0.5-0.74,0.5-1.19C58.39,6.32,58.21,5.9,57.89,5.58"/>
	</defs>
	<clipPath id="SVGID_18_">
		<use xlink:href="#SVGID_17_"  style="overflow:visible;"/>
	</clipPath>
	<g class="st8">
		<defs>
			<rect id="SVGID_19_" x="-603.47" y="-1164.73" width="1024" height="2663"/>
		</defs>
		<clipPath id="SVGID_20_">
			<use xlink:href="#SVGID_19_"  style="overflow:visible;"/>
		</clipPath>
		<rect x="33.9" y="0.1" class="st9" width="29.49" height="25.39"/>
	</g>
</g>
<g>
	<defs>
		<rect id="SVGID_21_" x="1.53" y="36" width="24.27" height="24.22"/>
	</defs>
	<clipPath id="SVGID_22_">
		<use xlink:href="#SVGID_21_"  style="overflow:visible;"/>
	</clipPath>
	<g class="st10">
		<g>
			<defs>
				<rect id="SVGID_23_" x="0.53" y="35.27" width="26" height="25"/>
			</defs>
			<clipPath id="SVGID_24_">
				<use xlink:href="#SVGID_23_"  style="overflow:visible;"/>
			</clipPath>
			<g class="st11">
				<defs>
					<path id="SVGID_25_" d="M22.98,48.11c0,5.13-4.18,9.3-9.32,9.3c-5.14,0-9.32-4.17-9.32-9.3c0-5.13,4.18-9.3,9.32-9.3
						c1.74,0,3.36,0.49,4.75,1.31l2.07-2.03c-1.94-1.32-4.29-2.1-6.82-2.1C6.97,36,1.53,41.43,1.53,48.11
						c0,6.68,5.44,12.11,12.14,12.11c6.69,0,12.14-5.43,12.14-12.11c0-1.24-0.19-2.44-0.54-3.57l-2.37,2.33
						C22.94,47.28,22.98,47.69,22.98,48.11"/>
				</defs>
				<clipPath id="SVGID_26_">
					<use xlink:href="#SVGID_25_"  style="overflow:visible;"/>
				</clipPath>
				<g class="st12">
					<defs>
						<rect id="SVGID_27_" x="1.53" y="35.27" width="25" height="25"/>
					</defs>
					<clipPath id="SVGID_28_">
						<use xlink:href="#SVGID_27_"  style="overflow:visible;"/>
					</clipPath>
					<rect x="-3.47" y="31" class="st13" width="34.27" height="34.22"/>
				</g>
			</g>
		</g>
	</g>
</g>
<g>
	<defs>
		<path id="SVGID_29_" d="M26.31,37.92c-0.64-0.64-1.76-0.64-2.39,0L13.6,48.06l-3.39-3.39c-0.64-0.64-1.75-0.64-2.39,0
			c-0.66,0.66-0.66,1.73,0,2.39l5.79,5.77l2.2-2.2l10.51-10.33c0.32-0.32,0.5-0.74,0.5-1.19C26.8,38.67,26.63,38.24,26.31,37.92"/>
	</defs>
	<clipPath id="SVGID_30_">
		<use xlink:href="#SVGID_29_"  style="overflow:visible;"/>
	</clipPath>
	<g class="st14">
		<defs>
			<rect id="SVGID_31_" x="-603.47" y="-1164.73" width="1024" height="2663"/>
		</defs>
		<clipPath id="SVGID_32_">
			<use xlink:href="#SVGID_31_"  style="overflow:visible;"/>
		</clipPath>
		<rect x="2.32" y="32.45" class="st15" width="29.49" height="25.39"/>
	</g>
</g>
<g>
	<defs>
		<path id="SVGID_33_" d="M54.57,48.11c0,5.13-4.18,9.3-9.32,9.3c-5.14,0-9.32-4.17-9.32-9.3c0-5.13,4.18-9.3,9.32-9.3
			c1.74,0,3.36,0.49,4.75,1.31l2.07-2.03c-1.94-1.32-4.29-2.1-6.82-2.1c-6.69,0-12.14,5.43-12.14,12.11
			c0,6.68,5.44,12.11,12.14,12.11c6.69,0,12.14-5.43,12.14-12.11c0-1.24-0.19-2.44-0.54-3.57l-2.37,2.33
			C54.53,47.28,54.57,47.69,54.57,48.11"/>
	</defs>
	<clipPath id="SVGID_34_">
		<use xlink:href="#SVGID_33_"  style="overflow:visible;"/>
	</clipPath>
	<g class="st16">
		<defs>
			<rect id="SVGID_35_" x="-603.47" y="-1164.73" width="1024" height="2663"/>
		</defs>
		<clipPath id="SVGID_36_">
			<use xlink:href="#SVGID_35_"  style="overflow:visible;"/>
		</clipPath>
		<rect x="28.11" y="31" class="st17" width="34.27" height="34.22"/>
	</g>
</g>
<g>
	<defs>
		<path id="SVGID_37_" d="M57.89,37.92c-0.64-0.64-1.76-0.64-2.39,0L45.19,48.06l-3.39-3.39c-0.64-0.64-1.75-0.64-2.39,0
			c-0.66,0.66-0.66,1.73,0,2.39l5.79,5.77l2.2-2.2l10.51-10.33c0.32-0.32,0.5-0.74,0.5-1.19C58.39,38.67,58.21,38.24,57.89,37.92"/>
	</defs>
	<clipPath id="SVGID_38_">
		<use xlink:href="#SVGID_37_"  style="overflow:visible;"/>
	</clipPath>
	<g class="st18">
		<defs>
			<rect id="SVGID_39_" x="-603.47" y="-1164.73" width="1024" height="2663"/>
		</defs>
		<clipPath id="SVGID_40_">
			<use xlink:href="#SVGID_39_"  style="overflow:visible;"/>
		</clipPath>
		<rect x="33.9" y="32.45" class="st19" width="29.49" height="25.39"/>
	</g>
</g>
</svg>
