<?xml version="1.0" encoding="utf-8"?>
<!-- Generator: Adobe Illustrator 24.3.0, SVG Export Plug-In . SVG Version: 6.00 Build 0)  -->
<svg version="1.1" id="Layer_1" xmlns="http://www.w3.org/2000/svg" xmlns:xlink="http://www.w3.org/1999/xlink" x="0px" y="0px"
	 viewBox="0 0 47.33 69.48" style="enable-background:new 0 0 47.33 69.48;" xml:space="preserve">
<style type="text/css">
	.st0{clip-path:url(#SVGID_2_);}
	.st1{clip-path:url(#SVGID_4_);fill:#FFFFFF;}
	.st2{clip-path:url(#SVGID_6_);}
	.st3{clip-path:url(#SVGID_8_);fill:#FFFFFF;}
	.st4{clip-path:url(#SVGID_10_);}
	.st5{clip-path:url(#SVGID_12_);fill:#FFFFFF;}
	.st6{clip-path:url(#SVGID_14_);fill:#FFFFFF;}
	.st7{clip-path:url(#SVGID_16_);fill:#FFFFFF;}
	.st8{fill:#9A3675;}
	.st9{clip-path:url(#SVGID_18_);}
	.st10{clip-path:url(#SVGID_20_);fill:#FFFFFF;}
</style>
<g>
	<g>
		<g>
			<defs>
				<path id="SVGID_1_" d="M45.84,33.06c0-6.34,0-12.69-0.01-19.03c0-2.73-2.08-4.79-4.84-4.8l-2.81,0l-2.29,0
					c-0.12,0-0.25,0.01-0.36,0.02l-0.55,0.04v3.44l5.86,0c1,0,1.49,0.49,1.49,1.49c0,13.46,0,26.92,0,40.38
					c0,0.97-0.49,1.46-1.45,1.46l-33.89,0c-1.01,0-1.51-0.5-1.51-1.53l0-2.44l0.01-37.94c0-0.93,0.5-1.42,1.43-1.43l5.91,0v-3.5
					L9,9.23l-2.09,0c-2.91,0.01-4.94,2.02-4.95,4.91c-0.01,13.3-0.01,26.6,0,39.9c0,3.13,0.95,4.47,3.89,5.47l0.11,0.08H41.8
					l0.2-0.11c2.47-0.63,3.83-2.37,3.84-4.9c0.01-3.81,0-7.61,0-11.42l0-3.97L45.84,33.06z"/>
			</defs>
			<clipPath id="SVGID_2_">
				<use xlink:href="#SVGID_1_"  style="overflow:visible;"/>
			</clipPath>
			<g class="st0">
				<defs>
					<rect id="SVGID_3_" x="1.96" y="3.16" width="44" height="65"/>
				</defs>
				<clipPath id="SVGID_4_">
					<use xlink:href="#SVGID_3_"  style="overflow:visible;"/>
				</clipPath>
				<rect x="-3.04" y="4.23" class="st1" width="53.88" height="60.36"/>
			</g>
		</g>
		<g>
			<defs>
				<path id="SVGID_5_" d="M34.08,7.26H28.9c-0.03-0.24-0.07-0.46-0.12-0.68c-0.43-1.95-1.75-3.18-3.65-3.37
					c-0.87-0.09-1.74-0.03-2.67,0.03c-1.24,0.08-2.25,0.76-2.83,1.9C19.37,5.67,19.19,6.22,19,6.8c-0.05,0.16-0.1,0.31-0.16,0.47
					h-5.12v7.37h20.36V7.26z M23.89,5.77l0.02,0.46c0.4,0.01,0.78,0.17,1.06,0.46c0.29,0.29,0.44,0.67,0.43,1.06
					c-0.01,0.8-0.7,1.48-1.53,1.48h0c-0.39-0.01-0.76-0.17-1.05-0.47c-0.28-0.3-0.43-0.68-0.42-1.08c0.02-0.79,0.7-1.46,1.49-1.46
					V5.77z"/>
			</defs>
			<clipPath id="SVGID_6_">
				<use xlink:href="#SVGID_5_"  style="overflow:visible;"/>
			</clipPath>
			<g class="st2">
				<defs>
					<rect id="SVGID_7_" x="1.96" y="3.16" width="44" height="65"/>
				</defs>
				<clipPath id="SVGID_8_">
					<use xlink:href="#SVGID_7_"  style="overflow:visible;"/>
				</clipPath>
				<rect x="8.72" y="-1.84" class="st3" width="30.36" height="21.47"/>
			</g>
		</g>
		<g>
			<defs>
				<path id="SVGID_9_" d="M33.04,30.71c-0.2,0-0.25-0.01-0.35-0.26c-0.78-1.85-1.57-3.7-2.37-5.55l-1.37-3.21
					c-0.11-0.25-0.43-1.01-1.3-1.01l-0.11,0c-0.96,0.07-1.18,0.92-1.25,1.2c-0.91,3.52-1.83,7.04-2.74,10.56l-0.09,0.33
					c-0.07,0.27-0.14,0.53-0.21,0.8l-0.39-1.02c-0.95-2.48-1.9-4.97-2.85-7.45c-0.12-0.33-0.41-1.09-1.35-1.12
					c-0.9,0-1.21,0.78-1.34,1.11c-0.4,1.01-0.81,2.02-1.21,3.03l-0.74,1.85c-0.38,0.94-0.38,0.94-1.37,0.94H10.9v2.63l2.8,0.01
					c0.76,0,1.51-0.01,2.26-0.04c0.52-0.02,0.98-0.55,1.15-0.88c0.24-0.45,0.42-0.93,0.59-1.39c0.08-0.2,0.15-0.4,0.23-0.6l0.7-1.71
					l0.66,1.73c0.94,2.46,1.89,4.92,2.83,7.38c0.14,0.37,0.44,1.15,1.35,1.15c0.04,0,0.09,0,0.14-0.01
					c0.93-0.08,1.14-0.88,1.24-1.27c0.84-3.26,1.69-6.53,2.54-9.79c0.18-0.68,0.36-1.37,0.55-2.08l0.49,1.16
					c0.74,1.72,1.47,3.44,2.23,5.15c0.16,0.36,0.64,0.91,1.15,0.93c0.76,0.03,1.52,0.04,2.28,0.04l2.82-0.01V30.7l-2.41-0.01
					C34.02,30.69,33.55,30.69,33.04,30.71"/>
			</defs>
			<clipPath id="SVGID_10_">
				<use xlink:href="#SVGID_9_"  style="overflow:visible;"/>
			</clipPath>
			<g class="st4">
				<defs>
					<rect id="SVGID_11_" x="1.96" y="3.16" width="44" height="65"/>
				</defs>
				<clipPath id="SVGID_12_">
					<use xlink:href="#SVGID_11_"  style="overflow:visible;"/>
				</clipPath>
				<rect x="5.9" y="15.68" class="st5" width="36.01" height="28.52"/>
			</g>
		</g>
		<g>
			<defs>
				<rect id="SVGID_13_" x="10.89" y="42.44" width="26.01" height="2.56"/>
			</defs>
			<clipPath id="SVGID_14_">
				<use xlink:href="#SVGID_13_"  style="overflow:visible;"/>
			</clipPath>
			<rect x="5.89" y="37.44" class="st6" width="36.01" height="12.56"/>
		</g>
		<g>
			<defs>
				<rect id="SVGID_15_" x="10.91" y="47" width="26.01" height="2.56"/>
			</defs>
			<clipPath id="SVGID_16_">
				<use xlink:href="#SVGID_15_"  style="overflow:visible;"/>
			</clipPath>
			<rect x="5.91" y="42" class="st7" width="36.01" height="12.56"/>
		</g>
		<rect x="21.43" y="52.65" class="st8" width="5.66" height="8.48"/>
		<g>
			<defs>
				<polygon id="SVGID_17_" points="23.43,53.91 23.43,65.02 20.42,62.02 19.35,63.1 24.2,67.95 29.05,63.1 27.97,62.02 
					24.97,65.02 24.97,53.91 				"/>
			</defs>
			<clipPath id="SVGID_18_">
				<use xlink:href="#SVGID_17_"  style="overflow:visible;"/>
			</clipPath>
			<g class="st9">
				<defs>
					<rect id="SVGID_19_" x="1.96" y="3.16" width="44" height="65"/>
				</defs>
				<clipPath id="SVGID_20_">
					<use xlink:href="#SVGID_19_"  style="overflow:visible;"/>
				</clipPath>
				<rect x="14.35" y="48.91" class="st10" width="19.71" height="24.04"/>
			</g>
		</g>
	</g>
</g>
</svg>
