<?xml version="1.0" encoding="utf-8"?>
<!-- Generator: Adobe Illustrator 24.3.0, SVG Export Plug-In . SVG Version: 6.00 Build 0)  -->
<svg version="1.1" id="Layer_1" xmlns="http://www.w3.org/2000/svg" xmlns:xlink="http://www.w3.org/1999/xlink" x="0px" y="0px"
	 viewBox="0 0 45.27 51.65" style="enable-background:new 0 0 45.27 51.65;" xml:space="preserve">
<style type="text/css">
	.st0{clip-path:url(#SVGID_2_);}
	.st1{clip-path:url(#SVGID_4_);fill:#FFFFFF;}
</style>
<g>
	<defs>
		<path id="SVGID_1_" d="M5.53,29.32c1.03,0.47,1.32,1.01,1.28,2.02C6.73,33.17,6.75,35,6.79,36.83c0.13,5.45,3.63,9.97,9.02,11.33
			c1.89,0.48,3.95,0.51,5.93,0.51c5.82,0,11.09-4.12,11.95-9.51c0.39-2.46,0.24-5.01,0.31-7.51c0.05-1.98,0.48-3.63,2.45-4.91
			c3.27-2.12,5.37-5.15,6.36-8.79c1.14-4.19,0.71-8.47,0.64-12.71c-0.02-1.49-1.45-2.5-3.07-2.53c-1.59-0.03-3.18,0.04-4.77-0.02
			C34.3,2.63,34,3.26,34.02,4.33c0.03,2.01,0.15,2.26,1.62,2.29c1.17,0.03,2.33,0.01,3.61,0.01c0,1.96-0.16,3.76,0.03,5.53
			c0.37,3.36-1.1,6.05-3.14,8.58c-1.76,2.17-5.12,2.72-7.25,0.96c-2.11-1.73-3.76-3.96-4.07-6.61c-0.32-2.73-0.07-5.52-0.07-8.46
			c1.36,0,2.53,0,3.71,0c1.01,0,1.52-0.43,1.46-1.41c-0.02-0.38-0.02-0.77,0-1.15c0.05-0.96-0.39-1.42-1.45-1.39
			c-1.5,0.03-3,0-4.5,0.01C21.67,2.7,20.43,3.86,20.41,6c-0.02,1.83,0.02,3.66-0.01,5.49c-0.06,3.72,0.95,7.18,3.09,10.29
			c1.5,2.18,3.29,4.18,4.82,6.34c0.65,0.92,1.24,2.04,1.35,3.11c0.21,2.02,0.11,4.08,0.04,6.13c-0.11,3.25-2.41,6.16-5.77,6.97
			c-1.68,0.4-3.51,0.42-5.26,0.33c-4.29-0.24-7.54-3.58-7.59-7.63c-0.02-2.04,0.03-4.09-0.02-6.13c-0.02-0.75,0.26-1.08,0.98-1.4
			c3.54-1.56,5.12-5.2,3.8-8.56c-1.15-2.93-4.1-4.7-7.47-4.48c-3.3,0.21-5.9,2.37-6.62,5.51C1.07,24.9,2.57,27.97,5.53,29.32
			 M8.56,19.68c2.19-0.02,4.02,1.54,4.03,3.47c0.01,1.93-1.77,3.51-3.96,3.53c-2.19,0.02-4.03-1.56-4.04-3.47
			C4.58,21.27,6.35,19.7,8.56,19.68"/>
	</defs>
	<clipPath id="SVGID_2_">
		<use xlink:href="#SVGID_1_"  style="overflow:visible;"/>
	</clipPath>
	<g class="st0">
		<defs>
			<rect id="SVGID_3_" x="-610.41" y="-1298.32" width="1024" height="2663"/>
		</defs>
		<clipPath id="SVGID_4_">
			<use xlink:href="#SVGID_3_"  style="overflow:visible;"/>
		</clipPath>
		<rect x="-3.41" y="-2.32" class="st1" width="52" height="56"/>
	</g>
</g>
</svg>
