<?xml version="1.0" encoding="utf-8"?>
<!-- Generator: Adobe Illustrator 24.3.0, SVG Export Plug-In . SVG Version: 6.00 Build 0)  -->
<svg version="1.1" id="Layer_1" xmlns="http://www.w3.org/2000/svg" xmlns:xlink="http://www.w3.org/1999/xlink" x="0px" y="0px"
	 viewBox="0 0 48.28 48.83" style="enable-background:new 0 0 48.28 48.83;" xml:space="preserve">
<style type="text/css">
	.st0{clip-path:url(#SVGID_2_);enable-background:new    ;}
	.st1{clip-path:url(#SVGID_4_);}
	.st2{clip-path:url(#SVGID_6_);}
	.st3{clip-path:url(#SVGID_8_);fill:#CE0058;}
	.st4{clip-path:url(#SVGID_10_);}
	.st5{clip-path:url(#SVGID_12_);fill:#CE0058;}
</style>
<g>
	<defs>
		<rect id="SVGID_1_" x="0.79" y="3.23" width="44" height="43"/>
	</defs>
	<clipPath id="SVGID_2_">
		<use xlink:href="#SVGID_1_"  style="overflow:visible;"/>
	</clipPath>
	<g class="st0">
		<g>
			<defs>
				<rect id="SVGID_3_" x="0.79" y="3.23" width="44" height="43"/>
			</defs>
			<clipPath id="SVGID_4_">
				<use xlink:href="#SVGID_3_"  style="overflow:visible;"/>
			</clipPath>
			<g class="st1">
				<defs>
					<path id="SVGID_5_" d="M22.79,41.23c-9.31,0-16.89-7.41-16.89-16.51S13.48,8.22,22.79,8.22c3.15,0,6.09,0.86,8.61,2.33
						l3.74-3.6c-3.52-2.35-7.78-3.72-12.36-3.72c-12.13,0-22,9.64-22,21.5s9.87,21.5,22,21.5c12.13,0,22-9.64,22-21.5
						c0-2.21-0.34-4.33-0.98-6.34l-4.3,4.14c0.1,0.72,0.17,1.45,0.17,2.2C39.68,33.83,32.11,41.23,22.79,41.23z"/>
				</defs>
				<clipPath id="SVGID_6_">
					<use xlink:href="#SVGID_5_"  style="overflow:visible;"/>
				</clipPath>
				<g class="st2">
					<defs>
						<rect id="SVGID_7_" x="0.79" y="3.23" width="44" height="43"/>
					</defs>
					<clipPath id="SVGID_8_">
						<use xlink:href="#SVGID_7_"  style="overflow:visible;"/>
					</clipPath>
					<rect x="-4.21" y="-1.77" class="st3" width="54" height="53"/>
				</g>
			</g>
		</g>
	</g>
</g>
<g>
	<defs>
		<path id="SVGID_9_" d="M46.48,4.97c-1.15-1.16-3.15-1.16-4.29,0L23.65,23.41l-6.1-6.16c-1.15-1.16-3.15-1.16-4.3,0
			c-1.18,1.2-1.18,3.15,0,4.34l10.39,10.5l3.95-4L46.48,9.31c0.57-0.58,0.89-1.35,0.89-2.17C47.37,6.32,47.05,5.55,46.48,4.97"/>
	</defs>
	<clipPath id="SVGID_10_">
		<use xlink:href="#SVGID_9_"  style="overflow:visible;"/>
	</clipPath>
	<g class="st4">
		<defs>
			<rect id="SVGID_11_" x="-344.63" y="-1625.9" width="1024" height="2663"/>
		</defs>
		<clipPath id="SVGID_12_">
			<use xlink:href="#SVGID_11_"  style="overflow:visible;"/>
		</clipPath>
		<rect x="7.37" y="-0.9" class="st5" width="45" height="38"/>
	</g>
</g>
</svg>
